<svg width="641" height="17" viewBox="0 0 641 17" fill="none" xmlns="http://www.w3.org/2000/svg">
<path d="M245.651 3.84469C201.641 6.87297 198.515 6.98633 100.988 7.06461C35.9697 7.22765 1.08522 7.5882 0.585699 8.36455C0.0861815 9.14091 30.9701 9.44867 92.3623 9.39939C182.763 9.32683 186.014 9.43508 234.655 12.4998C303.803 16.9892 297.926 16.9939 303.174 12.5557L307.547 8.78327L302.917 4.57468C299.414 1.36283 297.287 0.366883 294.412 0.480041C292.411 0.592497 270.406 2.05121 245.651 3.84469Z" fill="#804000"/>
<path d="M337.178 4.54598L332.555 8.76201L336.684 12.3059C341.939 16.8465 340.439 16.8478 405.328 12.4725C453.964 9.21881 458.841 9.10404 548.24 8.81059L640.766 8.51462L540.112 7.93031C446.461 7.34038 436.583 7.1266 397.57 4.38666C374.562 2.85322 352.554 1.20813 348.803 0.87859C342.051 0.329758 341.801 0.440809 337.178 4.54598Z" fill="#804000"/>
<path d="M315.296 3.23435C309.672 6.67522 312.805 15.0973 319.807 15.0917C325.058 15.0875 327.557 12.9793 327.554 8.54533C327.551 4.77642 324.047 1.45372 320.046 1.45693C318.921 1.45783 316.796 2.23549 315.296 3.23435Z" fill="#804000"/>
</svg>
