<svg width="23" height="773" viewBox="0 0 23 773" fill="none" xmlns="http://www.w3.org/2000/svg">
<path d="M5.94056 476.945C9.35038 530.044 9.46821 533.815 8.91724 651.44C8.68542 729.858 8.89484 771.934 9.8405 772.541C10.7862 773.149 11.3671 735.903 11.714 661.859C12.2247 552.829 12.3785 548.909 16.4473 490.265C22.3934 406.898 22.3602 413.986 16.9699 407.626L12.3877 402.327L7.21257 407.882C3.26333 412.086 2.03183 414.644 2.15109 418.113C2.27528 420.527 3.91244 447.076 5.94056 476.945Z" fill="#804000"/>
<path d="M7.40459 366.562L12.5274 372.166L16.8867 367.21C22.4718 360.902 22.4633 362.712 17.5455 284.421C13.8908 225.741 13.7828 219.859 14.0169 112.034L14.2686 0.439867L12.887 121.831C11.5449 234.778 11.2181 246.69 7.61027 293.724C5.58332 321.463 3.42651 347.995 2.99883 352.517C2.28319 360.657 2.41727 360.959 7.40459 366.562Z" fill="#804000"/>
<path d="M5.6567 392.944C9.82538 399.75 20.1409 396.028 20.1805 387.583C20.2102 381.25 17.6498 378.222 12.2299 378.196C7.62291 378.175 3.53817 382.378 3.51557 387.204C3.50921 388.561 4.44569 391.129 5.6567 392.944Z" fill="#804000"/>
</svg>
