<svg width="45" height="45" viewBox="0 0 45 45" fill="none" xmlns="http://www.w3.org/2000/svg">
<path d="M42.8906 40.7812H2.10938C1.92289 40.7812 1.74405 40.7072 1.61219 40.5753C1.48033 40.4434 1.40625 40.2646 1.40625 40.0781V17.5781C1.40625 17.3916 1.48033 17.2128 1.61219 17.0809C1.74405 16.9491 1.92289 16.875 2.10938 16.875C2.29586 16.875 2.4747 16.9491 2.60656 17.0809C2.73842 17.2128 2.8125 17.3916 2.8125 17.5781V39.375H42.1875V11.9531C42.1875 11.7666 42.2616 11.5878 42.3934 11.4559C42.5253 11.3241 42.7041 11.25 42.8906 11.25C43.0771 11.25 43.2559 11.3241 43.3878 11.4559C43.5197 11.5878 43.5938 11.7666 43.5938 11.9531V40.0781C43.5938 40.2646 43.5197 40.4434 43.3878 40.5753C43.2559 40.7072 43.0771 40.7812 42.8906 40.7812Z" fill="white"/>
<path d="M2.1088 37.9688C1.96098 37.97 1.81653 37.9245 1.69615 37.8387C1.57577 37.7529 1.48564 37.6312 1.43865 37.491C1.39167 37.3509 1.39025 37.1994 1.43459 37.0584C1.47894 36.9174 1.56677 36.794 1.68552 36.7059L14.1786 27.2278C14.3277 27.1229 14.5117 27.08 14.6918 27.1081C14.8719 27.1362 15.0341 27.2332 15.1441 27.3786C15.2541 27.5239 15.3033 27.7063 15.2814 27.8873C15.2595 28.0683 15.1681 28.2337 15.0266 28.3486L2.53349 37.8267C2.41114 37.919 2.26204 37.9689 2.1088 37.9688ZM42.8901 37.9688C42.7366 37.969 42.5873 37.9186 42.4654 37.8253L29.9005 28.2923C29.7519 28.1799 29.654 28.013 29.6284 27.8284C29.6029 27.6438 29.6517 27.4566 29.7641 27.308C29.8766 27.1593 30.0434 27.0615 30.2281 27.0359C30.4127 27.0103 30.5999 27.0591 30.7485 27.1716L43.3133 36.7045C43.4318 36.7929 43.5193 36.9163 43.5635 37.0574C43.6076 37.1984 43.6061 37.3497 43.5592 37.4898C43.5123 37.63 43.4224 37.7517 43.3022 37.8377C43.1821 37.9237 43.0378 37.9695 42.8901 37.9688ZM22.4994 29.887C21.5496 29.8976 20.6255 29.578 19.8852 28.9828L3.82865 15.6937C2.47021 14.5716 1.40568 12.6197 1.40568 11.25V9.14062C1.40568 8.95414 1.47976 8.7753 1.61162 8.64344C1.74348 8.51158 1.92232 8.4375 2.1088 8.4375H42.8901C43.0765 8.4375 43.2554 8.51158 43.3872 8.64344C43.5191 8.7753 43.5932 8.95414 43.5932 9.14062V11.25C43.5932 12.6197 42.5286 14.5716 41.1702 15.6952L25.1136 28.9814C24.3738 29.5776 23.4495 29.8978 22.4994 29.887ZM2.81193 9.84375V11.25C2.81193 12.1992 3.7063 13.7686 4.72302 14.6109L20.7796 27.9C21.6866 28.6467 23.3122 28.6481 24.2179 27.8986L40.2744 14.6123C41.2926 13.7686 42.1869 12.1992 42.1869 11.25V9.84375H2.81193Z" fill="white"/>
<path d="M22.5 29.887C21.5501 29.8976 20.6261 29.578 19.8858 28.9828L3.82922 15.6937C2.47078 14.5716 1.40625 12.6197 1.40625 11.25V9.14062C1.40625 8.95414 1.48033 8.7753 1.61219 8.64344C1.74405 8.51158 1.92289 8.4375 2.10938 8.4375H42.8906C43.0771 8.4375 43.2559 8.51158 43.3878 8.64344C43.5197 8.7753 43.5938 8.95414 43.5938 9.14062V11.25C43.5938 12.6197 42.5292 14.5716 41.1708 15.6952L25.1142 28.9814C24.3744 29.5776 23.4501 29.8978 22.5 29.887ZM2.8125 9.84375V11.25C2.8125 12.1992 3.70687 13.7686 4.72359 14.6109L20.7802 27.9C21.6872 28.6467 23.3128 28.6481 24.2184 27.8986L40.275 14.6123C41.2931 13.7686 42.1875 12.1992 42.1875 11.25V9.84375H2.8125Z" fill="white"/>
</svg>
