<svg width="45" height="45" viewBox="0 0 45 45" fill="none" xmlns="http://www.w3.org/2000/svg">
<path d="M20.8176 0.0272264C15.193 0.494327 10.1259 2.90358 6.22313 6.95179C2.91069 10.3854 0.852709 14.6385 0.139385 19.5225C0.0409956 20.2519 0 21.0304 0 22.5136C0 24.6688 0.0983895 25.6358 0.491947 27.4141C2.21376 35.1417 8.00234 41.5008 15.5373 43.9429C17.9397 44.7214 19.7845 45 22.4984 45C24.6548 45 25.6223 44.9017 27.4015 44.5083C35.3546 42.7382 41.7991 36.7069 44.1359 28.8482C44.4146 27.914 44.7344 26.3815 44.8902 25.2179C45.0542 24.046 45.0296 20.7517 44.8492 19.5225C44.1113 14.4172 41.8647 9.95926 38.2735 6.44371C34.7889 3.04289 30.5663 0.945038 25.7616 0.215706C24.6958 0.0600054 21.8097 -0.0547211 20.8176 0.0272264ZM25.2533 1.41214C29.9268 2.02674 34.2067 4.13279 37.552 7.46806C40.8316 10.7542 42.865 14.8106 43.5783 19.4898C43.8079 21.0222 43.8325 23.6855 43.6193 25.2179C42.3403 34.6418 35.2808 41.9352 25.9174 43.5331L25.6141 43.5823L25.6305 36.1825L25.6551 28.7826L28.4018 28.758L31.1485 28.7416L31.7552 25.8489C32.0832 24.2509 32.3701 22.8496 32.3947 22.7349L32.4357 22.5136H29.0249H25.6059L25.6305 19.7438L25.6551 16.9822L25.86 16.6134C26.0814 16.22 26.4422 15.9332 26.9177 15.7775C27.1063 15.7202 28.0492 15.671 29.5332 15.6546L31.8454 15.6218V13.9665C31.8454 13.0569 31.87 11.7539 31.9028 11.0737C31.9438 9.91009 31.9356 9.81995 31.7962 9.7462C31.4928 9.5823 29.5824 9.14798 28.6149 9.02506C24.1546 8.43504 20.6536 10.2133 19.3335 13.7288C18.8088 15.1383 18.7842 15.3268 18.7514 19.0882L18.7104 22.5136H15.8899H13.0694V25.6276V28.7416H15.8981H18.7268V36.1087V43.4758L18.4644 43.4102C18.3168 43.3774 17.9151 43.2873 17.5789 43.2054C12.5119 42.0581 7.77277 38.7802 4.81288 34.355C1.37745 29.2333 0.336164 22.8332 1.95959 16.9002C4.14876 8.91853 10.7818 2.90358 18.9072 1.54325C20.9816 1.19088 23.2035 1.14991 25.2533 1.41214ZM29.6316 9.83634C30.1482 9.94287 30.7303 10.0822 30.9271 10.1313L31.2715 10.2297V12.5898V14.9581L29.2463 14.999C26.9997 15.04 26.6799 15.0974 25.9748 15.5727C25.6796 15.7611 25.5075 15.966 25.3271 16.3184L25.0811 16.8101L25.0565 19.9896L25.0319 23.1692H28.3608H31.6814L31.6404 23.3495C31.6158 23.456 31.3944 24.4967 31.1485 25.6686C30.9025 26.8404 30.6811 27.8812 30.6565 27.9795L30.6155 28.168H27.8278H25.0401V35.9038V43.6315L24.6548 43.6806C23.2937 43.8527 20.7848 43.8118 19.6533 43.6069L19.3827 43.5577V35.8629V28.168H16.554H13.7253V25.6686V23.1692H16.554H19.3827V19.6536C19.3827 15.7857 19.4237 15.2858 19.8747 14.0566C20.4486 12.4914 21.5801 11.1639 22.9493 10.4591C24.3842 9.72161 25.1795 9.55772 27.2129 9.59869C28.3772 9.63147 28.8855 9.68064 29.6316 9.83634Z" fill="white"/>
<path d="M19.1771 3.45247C16.4714 3.93596 14.0936 4.87016 11.8798 6.32883C10.8058 7.03358 10.1826 7.52526 9.11674 8.50863C8.29683 9.26255 8.14924 9.492 8.31322 9.68867C8.4936 9.90993 8.65759 9.81979 9.41191 9.09046C12.2242 6.378 15.7252 4.62432 19.505 4.0343C20.6939 3.85401 20.6939 3.85401 20.6939 3.64095C20.6939 3.41969 20.5463 3.2558 20.3741 3.26399C20.3003 3.26399 19.7674 3.35413 19.1771 3.45247Z" fill="white"/>
<path d="M5.60026 13.0243C5.51007 13.1718 5.2559 13.6635 5.04272 14.1142C3.86204 16.548 3.25531 19.0802 3.17332 21.8582C3.09953 24.3412 3.3865 26.3571 4.14081 28.6189C5.06732 31.4051 6.68254 34.052 8.73232 36.1089C9.43745 36.8218 9.71622 36.9366 9.77361 36.535C9.79821 36.3875 9.67522 36.2154 9.27347 35.7975C6.77273 33.2325 5.05912 30.1595 4.272 26.8161C3.89484 25.2263 3.78005 24.2347 3.78005 22.5138C3.78005 19.4572 4.38679 16.843 5.71505 14.1634C5.99382 13.5979 6.23159 13.1144 6.24799 13.0817C6.28079 12.9997 6.01841 12.7621 5.88723 12.7621C5.82164 12.7621 5.69865 12.885 5.60026 13.0243Z" fill="white"/>
<path d="M40.0941 15.4337C40.0203 15.4993 39.9629 15.573 39.9629 15.5894C39.9629 15.5976 40.1269 16.1057 40.3319 16.7039C41.0124 18.7608 41.2993 20.6948 41.2666 23.0057C41.2502 23.8006 41.2748 24.4889 41.3075 24.5463C41.3895 24.6774 41.6437 24.6692 41.7503 24.5381C41.8979 24.366 41.9553 22.4075 41.8569 21.2028C41.7011 19.359 41.4469 18.097 40.8976 16.4253C40.5368 15.3436 40.381 15.1469 40.0941 15.4337Z" fill="white"/>
<path d="M38.0922 33.1421C38.002 33.224 37.6987 33.601 37.4117 33.9861C35.9522 35.9447 33.6483 37.895 31.3607 39.1161C30.6064 39.5176 30.4342 39.7143 30.6146 39.9273C30.7868 40.1322 30.959 40.0748 32.0167 39.4684C34.5092 38.0425 36.5426 36.2397 38.2234 33.9616C38.576 33.4863 38.6416 33.2732 38.4694 33.1011C38.3382 32.97 38.289 32.9782 38.0922 33.1421Z" fill="white"/>
</svg>
