<svg width="45" height="45" viewBox="0 0 45 45" fill="none" xmlns="http://www.w3.org/2000/svg">
<path d="M7.12488 0.16633C3.60276 0.90297 0.875169 3.66128 0.154363 7.20533C-0.0094559 7.99927 -0.00945591 8.24481 0.00692603 22.7239L0.0314989 37.4403L0.252655 38.2342C0.957079 40.7961 2.63623 42.8505 4.94608 43.9964C6.07643 44.553 7.04297 44.8231 8.25523 44.9377C8.88594 44.9868 13.8906 45.0113 23.171 44.9949C37.0711 44.9622 37.1366 44.9622 37.8738 44.7903C41.101 44.0291 43.5747 41.7865 44.574 38.709C45.0163 37.3503 44.9999 37.9805 44.9999 22.421C44.9999 8.73591 44.9917 7.94197 44.8525 7.279C44.1481 3.99686 41.9447 1.4841 38.8567 0.428246C37.538 -0.0219224 38.1113 -0.00555267 22.401 0.00263221C8.288 0.00263221 7.87026 0.0108171 7.12488 0.16633ZM37.538 1.50047C39.0451 1.82786 40.2246 2.47447 41.3549 3.5958C42.6 4.8399 43.3535 6.3541 43.5665 8.01564C43.6812 8.97327 43.6812 35.9588 43.5665 36.9001C43.4436 37.825 43.075 38.9299 42.6082 39.773C42.0594 40.747 40.7734 42.032 39.7987 42.5804C38.9304 43.0633 37.8574 43.4153 36.8499 43.538C36.2847 43.6035 32.2793 43.6199 21.9833 43.6035C9.05795 43.5708 7.84568 43.5626 7.33784 43.4316C4.31538 42.6786 2.13658 40.4523 1.50587 37.4567C1.32567 36.6218 1.32567 8.30211 1.50587 7.46725C1.82532 5.94486 2.51336 4.66802 3.59457 3.5958C4.90513 2.27803 6.52694 1.53321 8.34533 1.39406C8.73031 1.36951 15.3077 1.35314 22.9662 1.35314C35.7277 1.36132 36.9482 1.37769 37.538 1.50047Z" fill="white"/>
<path d="M9.55855 3.56334C6.73266 4.0708 4.44738 6.21524 3.66105 9.08814L3.47266 9.77567V22.4622V35.1488L3.66105 35.8445C3.89859 36.7449 4.54567 38.0299 5.09447 38.7092C6.21663 40.0843 7.94493 41.0992 9.6896 41.4021C10.3613 41.5248 34.5574 41.5248 35.2946 41.4021C37.5799 41.0419 39.7587 39.3968 40.7825 37.2769C40.9627 36.9167 41.1839 36.3274 41.2904 35.9673L41.4788 35.3125V28.0689V20.8253L41.2166 20.8007C40.9955 20.7762 40.9463 20.8089 40.9054 20.9644C40.8808 21.0708 40.8562 24.3038 40.8399 28.1507L40.8235 35.1488L40.5941 35.8691C40.201 37.1377 39.644 38.0381 38.7184 38.922C37.7109 39.8879 36.556 40.469 35.1717 40.7145C34.0905 40.9028 10.8527 40.9028 9.7797 40.7145C7.10945 40.248 5.02894 38.3 4.31633 35.599L4.12793 34.9033V22.4622V10.0212L4.30814 9.3255C4.68492 7.89314 5.54497 6.53445 6.64256 5.6423C7.27327 5.12665 8.41181 4.55371 9.28824 4.31635L9.94352 4.1281L22.2054 4.10354C34.3198 4.07899 34.4755 4.07899 34.5574 3.92347C34.6229 3.80889 34.6229 3.71067 34.5574 3.59608C34.4673 3.43238 34.3936 3.43238 22.3283 3.44057C12.3599 3.44875 10.0746 3.46512 9.55855 3.56334Z" fill="white"/>
<path d="M17.5191 11.8621C15.586 12.0504 14.2509 12.697 13.1451 13.9902C12.4899 14.7596 12.0148 15.9873 11.8592 17.2969C11.7527 18.2627 11.7527 25.9156 11.8592 26.8814C12.0557 28.5838 12.5308 29.6397 13.5465 30.6546C14.6687 31.7759 15.9219 32.267 18.0106 32.4062C19.4931 32.5044 26.5947 32.4389 27.3483 32.3243C28.8308 32.0952 29.8875 31.5795 30.8458 30.6301C31.3127 30.1553 31.5175 29.8771 31.8042 29.2796C32.4922 27.8718 32.5905 26.9714 32.5905 22.0523C32.5905 17.6079 32.4922 16.5275 31.9926 15.3407C31.411 13.9575 30.2643 12.8361 28.8964 12.3205C27.6513 11.8539 27.5121 11.8458 22.6794 11.8212C20.2221 11.8048 17.9041 11.8294 17.5191 11.8621ZM27.2254 12.5906C29.5598 12.9589 31.0588 14.2603 31.6076 16.4047C31.8287 17.256 31.9188 18.852 31.9106 21.9705C31.9025 25.4327 31.8205 27.0696 31.6158 27.8472C31.1489 29.6397 29.9448 30.9002 28.2083 31.4158C27.2582 31.7023 26.3326 31.7514 22.147 31.7514C17.126 31.7514 16.4871 31.6859 15.1847 31.0311C14.4557 30.671 13.5465 29.7788 13.2025 29.0913C12.5062 27.7162 12.408 26.7095 12.4653 21.2911C12.5062 16.994 12.5308 16.6994 12.9813 15.5944C13.2434 14.9478 13.8823 14.0966 14.4229 13.6874C15.3813 12.9589 16.3888 12.6315 18.0106 12.5169C19.4194 12.4269 26.5128 12.4842 27.2254 12.5906Z" fill="white"/>
<path d="M27.0367 15.0633C26.4879 15.3334 26.2422 15.7672 26.2422 16.4547C26.2422 16.9458 26.2668 17.0358 26.4961 17.3223C26.8647 17.7725 27.2005 17.9443 27.7166 17.9443C29.0271 17.9443 29.7561 16.4383 28.9288 15.4561C28.4701 14.9159 27.6756 14.7522 27.0367 15.0633ZM28.036 15.6608C28.9288 16.0291 28.6503 17.265 27.6756 17.265C27.3562 17.265 26.9548 16.913 26.8893 16.5775C26.8237 16.2091 27.0367 15.8163 27.3725 15.6689C27.7002 15.5216 27.7084 15.5216 28.036 15.6608Z" fill="white"/>
<path d="M21.1663 16.724C18.2503 17.2887 16.2681 20.0143 16.7022 22.8708C17.1199 25.6128 19.3888 27.5771 22.1492 27.5771C24.3034 27.5771 26.1546 26.4313 27.1129 24.5078C28.5873 21.5285 27.0228 17.9108 23.8201 16.8959C23.0174 16.6421 21.9444 16.5767 21.1663 16.724ZM23.1894 17.4361C24.5164 17.7062 25.8843 18.762 26.4658 19.9652C26.8508 20.7591 26.9737 21.3157 26.9737 22.1751C26.9573 24.647 24.9915 26.7177 22.4686 26.8978C20.1997 27.0615 18.0373 25.4818 17.4721 23.2473C17.2919 22.5189 17.3493 21.2502 17.5868 20.5873C18.2994 18.6393 20.0687 17.3624 22.0837 17.3542C22.4523 17.346 22.9519 17.387 23.1894 17.4361Z" fill="white"/>
<path d="M40.9517 13.9414C40.8862 14.0151 40.8616 14.3425 40.878 14.8909C40.9025 15.5866 40.9271 15.7503 41.05 15.8239C41.1483 15.8894 41.2302 15.8894 41.3367 15.8239C41.4513 15.7503 41.4759 15.5866 41.5005 14.8909C41.525 14.0233 41.4677 13.8268 41.1892 13.8268C41.1073 13.8268 41.0008 13.8759 40.9517 13.9414Z" fill="white"/>
<path d="M40.9517 16.7156C40.8862 16.7975 40.8616 17.2804 40.878 18.369C40.9025 19.7277 40.9189 19.9159 41.05 19.9978C41.1483 20.0632 41.2302 20.0632 41.3367 19.9978C41.4595 19.9159 41.4759 19.7358 41.4759 18.2789V16.6501L41.2629 16.6256C41.1483 16.6092 41.009 16.6501 40.9517 16.7156Z" fill="white"/>
</svg>
