<svg width="64" height="64" viewBox="0 0 64 64" fill="none" xmlns="http://www.w3.org/2000/svg">
<path d="M19.1928 18.1527C19.2546 18.1527 19.3161 18.1447 19.376 18.1288L27.8385 15.9201C28.0333 15.8692 28.2009 15.7392 28.3044 15.5586C28.4079 15.378 28.4388 15.1617 28.3904 14.9572C28.3419 14.7527 28.218 14.5768 28.0459 14.4682C27.8738 14.3596 27.6677 14.3271 27.4728 14.378L19.0111 16.5867C18.8337 16.6356 18.6793 16.7503 18.5762 16.9096C18.4732 17.0688 18.4287 17.2618 18.4509 17.4529C18.473 17.6439 18.5604 17.8201 18.6968 17.9488C18.8332 18.0774 19.0094 18.1498 19.1928 18.1527ZM20.5911 19.8807C20.6398 20.0851 20.7637 20.261 20.9357 20.3697C21.1077 20.4784 21.3137 20.5111 21.5087 20.4607L29.9779 18.2583C30.1729 18.2076 30.3407 18.0778 30.4444 17.8973C30.5481 17.7167 30.5792 17.5004 30.531 17.2958C30.4827 17.0912 30.3589 16.9151 30.1869 16.8063C30.0149 16.6974 29.8087 16.6647 29.6138 16.7154L21.1438 18.9178C21.0472 18.9429 20.9563 18.9877 20.8763 19.0497C20.7962 19.1117 20.7286 19.1896 20.6773 19.279C20.626 19.3685 20.5919 19.4676 20.5771 19.5709C20.5624 19.6741 20.5671 19.7794 20.5911 19.8807ZM26.905 20.3105L23.2787 21.2496C23.1821 21.2746 23.0912 21.3193 23.0112 21.3811C22.9311 21.443 22.8634 21.5208 22.812 21.6101C22.7606 21.6994 22.7264 21.7985 22.7115 21.9016C22.6965 22.0048 22.7011 22.11 22.7249 22.2113C22.7487 22.3126 22.7913 22.408 22.8502 22.4921C22.9092 22.5761 22.9833 22.6471 23.0684 22.7011C23.1535 22.7551 23.2479 22.7909 23.3462 22.8066C23.4445 22.8223 23.5448 22.8175 23.6413 22.7925L27.2676 21.8534C27.4626 21.803 27.6305 21.6733 27.7343 21.4929C27.8382 21.3126 27.8695 21.0963 27.8214 20.8917C27.7733 20.6871 27.6498 20.5109 27.4779 20.4019C27.306 20.2929 27.1 20.26 26.905 20.3105ZM38.7682 36.0129C37.1625 36.015 35.6232 36.6853 34.4878 37.8769C33.3524 39.0684 32.7137 40.6838 32.7117 42.3689C33.0152 50.7897 44.5211 50.7874 44.8247 42.3689C44.8227 40.6838 44.1839 39.0684 43.0485 37.8769C41.9132 36.6853 40.3738 36.015 38.7682 36.0129ZM38.7682 47.1359C32.7647 46.9364 32.7662 37.8013 38.7682 37.6019C44.7709 37.8021 44.7694 46.9372 38.7682 47.1359Z" fill="white"/>
<path d="M52.7502 47.066C53.421 46.3002 54.1004 45.5427 54.7882 44.7937C54.8604 44.7148 54.9163 44.6212 54.9524 44.5186C54.9885 44.4159 55.004 44.3066 54.9979 44.1974C54.9919 44.0882 54.9644 43.9815 54.9173 43.884C54.8701 43.7865 54.8043 43.7002 54.7239 43.6306C52.5341 41.7305 50.0514 40.2366 47.3827 39.2132C47.3871 39.0218 47.4074 38.8312 47.4432 38.6436L51.6419 37.5789C51.7963 37.5366 51.9341 37.4444 52.0359 37.3154C52.1377 37.1865 52.1983 37.0272 52.2092 36.8601C52.22 36.693 52.1806 36.5266 52.0965 36.3843C52.0124 36.242 51.8878 36.131 51.7403 36.067C49.6077 35.1888 47.5707 34.0736 45.6641 32.7404L51.6419 31.223C51.7963 31.1806 51.9341 31.0885 52.0359 30.9595C52.1377 30.8305 52.1983 30.6712 52.2092 30.5041C52.22 30.3371 52.1806 30.1706 52.0965 30.0283C52.0124 29.886 51.8878 29.775 51.7403 29.711C46.8897 27.7284 42.5742 24.5318 39.1693 20.3996C36.5579 17.2056 34.5502 13.5189 33.2536 9.53641C33.1917 9.34856 33.0651 9.19177 32.8987 9.09681C32.7323 9.00185 32.5381 8.97559 32.3542 9.02317L10.5736 14.7364C10.4723 14.7638 10.3774 14.8127 10.2949 14.8803C10.2124 14.9478 10.1441 15.0324 10.0941 15.1288C10.0441 15.2252 10.0135 15.3314 10.0043 15.4408C9.99512 15.5502 10.0075 15.6603 10.0406 15.7645C10.5995 17.4617 11.2845 19.1103 12.0892 20.6951C11.4306 20.9192 10.2753 20.9938 10.0921 21.4832C10.042 21.5798 10.0116 21.6862 10.0027 21.7958C9.99385 21.9053 10.0067 22.0156 10.0406 22.1196C10.5995 23.8172 11.2844 25.466 12.0892 27.0511L10.5736 27.4483C10.4722 27.4757 10.3772 27.5247 10.2947 27.5922C10.2121 27.6598 10.1437 27.7445 10.0937 27.841C10.0437 27.9376 10.0132 28.0439 10.004 28.1533C9.99491 28.2628 10.0073 28.373 10.0406 28.4772C12.6296 36.37 17.8505 43.0144 24.7405 47.1852C23.9868 49.0852 23.2679 51.0003 22.5843 52.9294C22.5265 53.0934 22.5218 53.2728 22.5711 53.4398C22.6203 53.6069 22.7206 53.7522 22.8566 53.8533C22.9925 53.9545 23.1564 54.0057 23.3229 53.9991C23.4894 53.9925 23.6492 53.9284 23.7775 53.8168C25.9237 51.9459 28.375 50.4983 31.0127 49.544C31.6963 49.8706 32.8334 49.7593 33.427 50.0835C34.1061 50.878 34.2878 52.5814 35.4915 52.9516C36.6369 53.3973 37.7884 52.0936 38.7681 51.9029C39.7568 52.0944 40.8833 53.3965 42.0492 52.9508C43.2491 52.5814 43.4316 50.8724 44.1137 50.0803C44.7027 49.7625 45.8413 49.8698 46.5234 49.544C49.1614 50.4982 51.6129 51.9458 53.7594 53.8168C53.8877 53.9286 54.0476 53.9928 54.2142 53.9994C54.3809 54.0061 54.545 53.9548 54.681 53.8535C54.817 53.7522 54.9173 53.6067 54.9664 53.4394C55.0155 53.2722 55.0106 53.0926 54.9525 52.9286C54.2704 51.0003 53.53 49.0308 52.7502 47.066ZM47.6703 36.9513C47.678 36.6549 47.6162 36.3612 47.4904 36.0958C47.3646 35.8303 47.1787 35.6014 46.9489 35.429C47.6455 35.8438 48.3561 36.2323 49.0792 36.5938L47.6703 36.9513ZM46.6105 35.2288C45.9064 34.8586 44.7367 34.9897 44.1099 34.6536C43.8123 34.2466 43.5744 33.7951 43.4043 33.3141L43.6897 33.2418C44.6299 33.9571 45.6043 34.6204 46.6105 35.2288ZM32.0537 10.7401C35.054 19.343 41.1745 26.3517 49.08 30.237L42.3686 31.942C41.1543 31.1125 39.8378 32.6038 38.7681 32.835C38.395 32.7492 38.0411 32.589 37.7256 32.3631C35.6134 30.9512 34.5913 31.9507 33.7714 34.1157L29.5652 35.1811C22.5298 32.4854 14.664 24.9298 11.7516 16.0656L32.0537 10.7401ZM12.8576 22.1316C16.3704 28.9753 24.1643 34.9468 29.2336 36.7519C29.4433 36.825 29.6707 36.8197 29.8771 36.7368C29.9123 37.5681 30.0047 38.3958 30.1535 39.2132C29.1959 39.5787 28.2609 40.0062 27.3538 40.4931C20.146 36.779 14.564 30.3135 11.7508 22.4207L12.8576 22.1316ZM17.9564 39.45C15.2646 36.3357 13.1595 32.7143 11.7523 28.7775L12.8576 28.4875C15.9343 33.9734 20.4032 38.4539 25.7655 41.4291C24.645 42.1075 23.6008 42.9161 22.6525 43.8395C20.9507 42.5455 19.3774 41.0749 17.9564 39.45ZM26.3681 47.213C26.4242 47.0735 26.4411 46.9201 26.4168 46.7709C26.3925 46.6217 26.3281 46.4829 26.2311 46.3708C25.6324 45.6811 25.0264 44.9983 24.4134 44.3226C25.61 43.3496 26.8987 42.5083 28.2593 41.812C27.7059 43.3724 29.5031 44.298 30.1285 45.3133C30.2443 46.1293 29.6735 47.3798 29.9218 48.2768C28.1653 48.9618 26.4894 49.8556 24.9267 50.9408C25.3885 49.7021 25.8708 48.4564 26.3681 47.213ZM45.007 48.2554C44.3778 48.2714 43.7632 48.4575 43.2226 48.7956C42.7499 49.2298 42.3921 49.7848 42.1839 50.4069C42.0174 50.793 41.7645 51.3761 41.5768 51.4405C40.747 51.3237 39.7386 50.2535 38.7681 50.3139C37.796 50.2543 36.7921 51.3181 35.9616 51.4421C35.3446 50.8851 35.113 49.3144 34.3165 48.7988C33.5973 48.1592 32.1264 48.4087 31.417 47.9733C31.2535 47.1224 31.9212 45.7487 31.5684 44.8247C31.3473 43.8713 29.9816 43.1618 29.6833 42.3689C30.0013 41.5744 31.314 40.8673 31.5684 39.9108C31.9212 38.9923 31.2504 37.6091 31.4162 36.7646C32.1279 36.3276 33.5951 36.5795 34.3127 35.9415C34.7835 35.5058 35.1405 34.9512 35.3499 34.3302C35.5392 33.9282 35.7572 33.3188 36.0033 33.2894C36.8663 33.4984 37.7786 34.455 38.7673 34.4232C39.7363 34.482 40.7485 33.4158 41.573 33.295C42.1938 33.848 42.4194 35.4258 43.2188 35.9383C43.935 36.5794 45.4105 36.3268 46.1184 36.7638C46.2811 37.6139 45.6134 38.9884 45.967 39.9124C46.2206 40.8745 47.5469 41.5792 47.852 42.3681C47.5545 43.165 46.1842 43.8674 45.9662 44.8263C45.6089 45.744 46.2872 47.1288 46.1191 47.9725C46.0056 48.1354 45.381 48.2109 45.007 48.2554ZM47.6128 48.276C47.8626 47.383 47.2911 46.1285 47.4061 45.3149C48.0299 44.298 49.8295 43.3724 49.2761 41.8112C50.6318 42.5166 51.9197 43.3574 53.1219 44.3218C52.5314 44.9733 51.9243 45.6542 51.3042 46.3716C51.2071 46.4836 51.1426 46.6223 51.1181 46.7716C51.0937 46.9208 51.1105 47.0742 51.1665 47.2138C51.6619 48.4495 52.1427 49.6917 52.6087 50.94C51.0458 49.8547 49.3696 48.9609 47.6128 48.276Z" fill="white"/>
</svg>
