<svg width="45" height="45" viewBox="0 0 45 45" fill="none" xmlns="http://www.w3.org/2000/svg">
<path d="M8.22143 0.083639C6.17579 0.386388 4.31016 1.32737 2.81276 2.81656C1.30716 4.31395 0.382535 6.16317 0.07978 8.29878C-0.0265933 9.07611 -0.0265933 35.9144 0.07978 36.6918C0.382535 38.8192 1.30716 40.6684 2.82094 42.174C4.33471 43.6959 6.16761 44.6123 8.30325 44.9151C9.12151 45.0296 35.8621 45.0296 36.6967 44.9069C38.8242 44.6123 40.6817 43.6877 42.1791 42.1822C43.701 40.6602 44.6175 38.8192 44.9202 36.6918C45.0266 35.9144 45.0266 9.07611 44.9202 8.29878C44.3147 4.06847 41.0662 0.746414 36.9013 0.116369C36.2467 0.00999726 33.972 -0.00636757 22.4182 0.00181484C14.882 0.00999726 8.49145 0.0427269 8.22143 0.083639ZM37.1059 1.54011C40.2971 2.20288 42.8009 4.69852 43.4555 7.88148C43.6028 8.59335 43.611 9.23158 43.611 22.4953C43.611 35.759 43.6028 36.3972 43.4555 37.1091C42.8009 40.2838 40.2889 42.7958 37.1141 43.4504C36.4022 43.5977 35.7639 43.6059 22.5 43.6059C9.23607 43.6059 8.59783 43.5977 7.88594 43.4504C4.71111 42.7958 2.19906 40.2838 1.54446 37.1091C1.39717 36.3972 1.38899 35.759 1.38899 22.4953C1.38899 9.23158 1.39717 8.59335 1.54446 7.88148C2.19906 4.73125 4.70293 2.21107 7.84503 1.54829C8.50782 1.40101 9.35062 1.39283 22.4591 1.39283C35.7312 1.38464 36.4022 1.39283 37.1059 1.54011Z" fill="white"/>
<path d="M10.0638 3.48788C6.4307 4.09337 3.67318 7.07996 3.46043 10.6393C3.41952 11.3839 3.4277 11.4412 3.58317 11.523C3.67318 11.5721 3.81228 11.5885 3.87774 11.5639C4.03321 11.5066 4.06594 11.3757 4.1314 10.5575C4.34415 8.10276 5.92338 5.85259 8.20632 4.7807C9.27005 4.27339 9.91647 4.15065 11.6594 4.10974C12.5185 4.09337 13.2959 4.06064 13.3859 4.04428C13.6068 3.99519 13.6886 3.79881 13.5823 3.58606C13.5004 3.43878 13.3941 3.4306 11.8803 3.43878C10.9966 3.44696 10.1783 3.47151 10.0638 3.48788Z" fill="white"/>
<path d="M21.9428 6.23647C21.8773 6.31011 21.8446 9.56671 21.82 17.3891C21.7955 29.5891 21.8446 28.5663 21.2718 29.7036C20.4781 31.2665 18.5143 32.2565 16.7714 31.9783C16.1004 31.872 15.9368 31.7656 15.6258 31.2256C14.7994 29.7936 14.824 27.9608 15.6913 26.6189C16.5668 25.2688 18.2279 24.426 19.7335 24.5651C20.4863 24.6305 20.4536 24.7696 20.4536 21.8485C20.4536 19.5984 20.4372 19.312 20.3145 19.2138C20.2163 19.132 19.9299 19.0992 19.2916 19.1074H18.4079V18.5265C18.4079 18.1828 18.367 17.9046 18.3097 17.8473C18.1706 17.7082 16.5587 17.7246 15.6913 17.8719C11.6164 18.5837 8.35973 21.8403 7.64785 25.9152C7.49238 26.8152 7.49238 28.4108 7.64785 29.2945C7.89333 30.7264 8.61339 32.3629 9.50529 33.5494C10.2826 34.5804 11.6328 35.7423 12.6719 36.2823C12.8274 36.3559 13.1793 36.6014 13.4493 36.8142C15.1922 38.1806 17.5569 38.9334 19.799 38.8352C22.3355 38.7288 24.553 37.7715 26.345 36.0041C27.4906 34.8667 28.2925 33.5985 28.7998 32.0847C29.2825 30.6446 29.2907 30.4973 29.2907 23.9105C29.2907 20.6048 29.3153 17.9128 29.3562 17.9291C29.3889 17.9373 29.7735 18.1664 30.2235 18.4365C32.081 19.5411 34.3721 20.2775 36.4259 20.4166C37.0151 20.4575 37.2524 20.4493 37.3505 20.3675C37.4569 20.2775 37.4733 19.9011 37.4733 17.7C37.4733 14.7871 37.5224 14.9753 36.7614 14.9589C36.5487 14.9589 36.1641 14.9098 35.9186 14.8607L35.4686 14.7625L35.4276 14.2307L35.3867 13.6988L34.8549 13.6334C33.9548 13.5188 32.8338 13.257 32.2201 13.0197C31.7046 12.8233 31.5737 12.7333 31.1727 12.2587C30.2972 11.2114 29.7571 10.0413 29.4871 8.62574C29.2662 7.43929 29.348 7.52111 28.3579 7.52111C27.4006 7.52111 27.4415 7.55384 27.3596 6.80924C27.3269 6.56377 27.2533 6.31011 27.1878 6.24466C27.0242 6.08101 22.0737 6.07282 21.9428 6.23647ZM26.705 6.91561C26.7296 6.98925 26.7541 7.1529 26.7541 7.28382V7.52111L25.3467 7.53748L23.9311 7.56202L23.8902 18.6492C23.8493 29.1227 23.8411 29.7609 23.6939 30.1864C23.4484 30.9392 23.0556 31.5856 22.5401 32.1011C21.2309 33.4103 19.2425 33.7539 17.5488 32.9684L17.1396 32.7802L17.7533 32.7066C19.9053 32.4775 21.5828 31.1437 22.2783 29.1227L22.4583 28.5908L22.4828 17.6837L22.4992 6.78469H24.5776C26.3941 6.78469 26.6641 6.80106 26.705 6.91561ZM27.2369 8.89576C27.8997 10.7613 29.3071 12.3896 30.9927 13.2406C31.1809 13.3388 31.59 13.617 31.901 13.8543C32.5228 14.3289 33.4802 14.8526 34.2657 15.1308L34.773 15.319V16.8327V18.3464L34.0939 18.2973C32.0073 18.1337 29.4462 17.2336 27.8588 16.1045C27.0814 15.5562 26.9341 15.4908 26.7705 15.5972C26.6396 15.6708 26.6314 16.2354 26.5905 22.3395L26.5414 28.9999L26.3286 29.7855C25.7886 31.7738 24.8803 33.2466 23.3829 34.564C22.311 35.505 21.0754 36.1514 19.5617 36.5441C18.5225 36.8223 16.6241 36.8551 15.544 36.626C14.3903 36.3723 13.4329 35.9632 12.9829 35.5213C11.1745 33.7621 10.1272 31.111 10.2499 28.5908C10.4217 25.1542 12.2874 22.2822 15.3395 20.7766C16.1904 20.3593 17.3115 19.9584 17.6469 19.9584C17.7288 19.9584 17.7533 20.2529 17.7533 21.2185V22.4704L17.0823 22.5195C15.765 22.6095 14.6767 23.1168 13.7439 24.0578C11.2727 26.5534 12.0583 30.7673 15.274 32.2565C15.5031 32.3629 15.8877 32.6248 16.125 32.8457C17.3115 33.9094 19.2016 34.3431 20.7727 33.9012C22.5483 33.4021 24.0457 31.8147 24.4221 30.0555C24.5203 29.5809 24.5448 27.8462 24.5448 18.8292V8.1757H25.764H26.9751L27.2369 8.89576ZM28.7507 8.31481C28.767 8.39663 28.8325 8.68301 28.8816 8.95303C29.0125 9.58308 29.3153 10.4341 29.6753 11.1623L29.9617 11.7351L29.5362 11.3259C28.7916 10.6141 28.1533 9.59944 27.8097 8.60937L27.6624 8.1757H28.1861C28.6116 8.1757 28.7179 8.20025 28.7507 8.31481ZM34.6749 14.2716C34.7239 14.2961 34.773 14.3698 34.773 14.4353C34.773 14.5825 34.6421 14.558 34.0775 14.3125L33.7502 14.1734L34.1593 14.2061C34.3885 14.2307 34.6176 14.2552 34.6749 14.2716ZM36.5159 15.6217H36.8187V17.6673V19.7129H36.5978C36.1804 19.7047 34.6994 19.4756 34.0612 19.312C33.3084 19.1156 32.4083 18.7965 32.7683 18.8456C32.9074 18.8619 33.3084 18.9274 33.6684 18.9765C34.0284 19.0256 34.5603 19.0583 34.8549 19.0419L35.3867 19.0174L35.4113 17.34C35.4195 16.4154 35.444 15.6217 35.4604 15.5726C35.4849 15.5071 35.6077 15.499 35.8531 15.5481C36.0495 15.5808 36.3441 15.6135 36.5159 15.6217ZM28.1861 17.07L28.5952 17.3073L28.6198 23.3623C28.6361 27.3389 28.6116 29.6464 28.5543 30.1046C28.1124 33.5821 25.7886 36.4541 22.4419 37.6569C21.82 37.886 20.8545 38.0742 19.9544 38.1642C18.9725 38.2543 17.2051 37.9761 16.1495 37.5588L15.765 37.4115L16.9923 37.4524C18.3588 37.4933 19.3244 37.3706 20.4536 37.0023C22.9083 36.2005 25.0767 34.3267 26.2141 32.0111C26.6723 31.0946 26.8932 30.4319 27.0896 29.4254C27.2369 28.6808 27.2451 28.1899 27.2451 22.5686V16.5054L27.5151 16.669C27.6542 16.7591 27.9652 16.9391 28.1861 17.07ZM17.7533 18.8128C17.7533 19.1892 17.7369 19.222 17.5324 19.2629C17.4015 19.2956 16.9432 19.4183 16.5096 19.5574C13.7602 20.392 11.4036 22.5195 10.299 25.1788C9.8326 26.3079 9.63621 27.2325 9.5953 28.5908C9.52984 30.481 9.85714 31.9865 10.6836 33.5412L11.0518 34.2367L10.6754 33.8685C10.1599 33.3775 9.23527 31.962 8.91615 31.1928C7.86878 28.689 7.95879 25.9479 9.16163 23.5177C10.6754 20.4657 13.8011 18.4774 17.2051 18.4119L17.7533 18.4037V18.8128ZM19.799 21.8403V23.8859H19.2425C17.2214 23.8859 15.2985 25.326 14.5867 27.3635C14.3903 27.9444 14.3576 28.1326 14.3657 28.9999C14.3657 29.8509 14.3985 30.0637 14.5785 30.571C14.7667 31.0946 14.7749 31.1519 14.6439 31.0865C14.3576 30.931 13.6784 30.0964 13.4329 29.5891C13.0811 28.8527 12.9829 28.4435 12.9829 27.6089C12.9911 26.3243 13.3675 25.4079 14.2757 24.4996C15.1676 23.6077 16.0923 23.2232 17.3851 23.1986C17.8351 23.1986 18.2525 23.1577 18.3097 23.125C18.3834 23.0759 18.4079 22.6422 18.4079 21.423V19.7947H19.1034H19.799V21.8403Z" fill="white"/>
<path d="M41.043 33.4847C40.8466 33.632 40.8875 34.5893 41.1003 34.7203C41.3703 34.8921 41.5258 34.6875 41.5503 34.123C41.583 33.4438 41.403 33.2229 41.043 33.4847Z" fill="white"/>
<path d="M40.7613 35.5219C40.7122 35.5792 40.5813 35.882 40.4586 36.2011C40.344 36.512 40.1231 36.9948 39.9676 37.273C39.6239 37.8785 39.6158 38.0176 39.8858 38.1403C40.1476 38.2549 40.2622 38.1649 40.614 37.5184C40.8677 37.0684 41.3177 35.9311 41.3177 35.751C41.3177 35.6447 41.0722 35.4237 40.9577 35.4237C40.8922 35.4237 40.8104 35.4728 40.7613 35.5219Z" fill="white"/>
<path d="M38.2098 39.3186C37.1788 40.1777 35.6487 40.775 34.2168 40.8814C33.6685 40.9223 33.5212 40.9632 33.4558 41.086C33.4067 41.1842 33.4067 41.2905 33.464 41.3969C33.5376 41.536 33.6358 41.5605 34.0695 41.5605C35.5751 41.5605 37.3343 40.8978 38.6844 39.8259C39.0936 39.4986 39.1918 39.3758 39.1918 39.1876C39.1918 38.9749 39.0608 38.8522 38.8399 38.8685C38.7826 38.8685 38.5044 39.0731 38.2098 39.3186Z" fill="white"/>
</svg>
