<svg width="443" height="697" viewBox="0 0 443 697" fill="none" xmlns="http://www.w3.org/2000/svg">
<mask id="mask0_392_913" style="mask-type:luminance" maskUnits="userSpaceOnUse" x="0" y="0" width="443" height="697">
<path d="M0.583008 0.0996094H442.093V696.178H0.583008V0.0996094Z" fill="white"/>
</mask>
<g mask="url(#mask0_392_913)">
<mask id="mask1_392_913" style="mask-type:luminance" maskUnits="userSpaceOnUse" x="0" y="0" width="442" height="697">
<path d="M369.896 60.8965C328.958 22.8288 274.953 0.0996094 225.437 0.0996094C223.948 0.0996094 222.458 0.115235 220.974 0.146484C219.484 0.115235 217.994 0.0996094 216.505 0.0996094C167 0.0996094 112.994 22.8288 72.0622 60.8965C26.7288 103.053 1.33822 159.209 0.583008 219.016V696.094H441.369V219.006C440.614 159.209 415.224 103.053 369.896 60.8965ZM439.88 694.605H2.07259V219.027C2.8278 159.636 28.0361 103.865 73.083 61.9798C113.739 24.1673 167.364 1.58398 216.515 1.58398C217.994 1.58398 219.474 1.60482 220.963 1.63607H221C222.489 1.60482 223.968 1.58398 225.448 1.58398C274.599 1.58398 328.213 24.1673 368.885 61.9798C413.916 103.855 439.135 159.636 439.89 219.016V694.605H439.88ZM365.786 66.9277C326.099 30.0215 273.875 7.99544 226.073 7.99544C224.635 7.99544 223.192 8.01628 221.744 8.04232H221.468C220.021 8.01628 218.583 7.99544 217.14 7.99544C169.338 7.99544 117.104 30.0319 77.4268 66.9277C33.4945 107.777 8.8903 162.126 8.16634 219.959V690.089H435.057V220.037C434.323 162.157 409.718 107.777 365.786 66.9277ZM433.573 688.605H9.65072V219.969C10.3799 162.553 34.8122 108.589 78.4372 68.0111C117.859 31.36 169.708 9.47461 217.14 9.47461C218.573 9.47461 220 9.49024 221.427 9.52148H221.786C223.213 9.49024 224.646 9.47461 226.073 9.47461C273.505 9.47461 325.364 31.36 364.776 68.0111C408.411 108.589 432.838 162.584 433.562 220.048L433.573 688.605Z" fill="white"/>
</mask>
<g mask="url(#mask1_392_913)">
<path d="M0.583008 0.0996094H441.104V696.589H0.583008V0.0996094Z" fill="white"/>
</g>
</g>
<mask id="mask2_392_913" style="mask-type:luminance" maskUnits="userSpaceOnUse" x="42" y="75" width="357" height="547">
<path d="M42.8853 75.1562H398.885V621.156H42.8853V75.1562Z" fill="white"/>
</mask>
<g mask="url(#mask2_392_913)">
<path d="M398.885 198.141C398.885 198.141 391.239 194.183 381.297 189.797C381.187 189.526 381.083 189.209 380.974 188.938C385.25 178.99 388.14 170.86 388.14 170.86C388.14 170.86 384.505 177.917 380.333 187.282C379.693 185.625 378.995 183.912 378.302 182.256C372.26 168.021 364.453 154.756 354.995 142.662C363.12 147.907 368.838 151.224 368.838 151.224C368.838 151.224 361.463 145.339 351.146 138.011C350.771 137.526 350.344 137.047 349.969 136.62C373.599 138.011 391.989 137.797 391.989 137.797C391.989 137.797 372.849 134.854 348.364 133.032C360.552 124.74 369.693 117.735 369.693 117.735C369.693 117.735 359.375 123.563 346.547 131.912C353.656 116.235 358.682 103.61 358.682 103.61C358.682 103.61 353.015 114.203 346.224 128.542C348.151 98.6878 348.526 75.3076 348.526 75.3076C348.526 75.3076 345.583 99.0055 343.39 129.287C343.286 129.183 343.177 129.073 343.073 128.969C336.87 114.417 331.63 103.662 331.63 103.662C331.63 103.662 334.943 113.183 339.969 125.917C324.146 110.297 305.807 98.0472 285.437 89.3753C263.896 80.2816 241.068 75.6305 217.489 75.6305C193.911 75.6305 171.083 80.2295 149.542 89.3753C128.745 98.1514 110.083 110.776 94.0467 126.828C78.0103 142.875 65.4425 161.547 56.6248 182.36C47.5363 203.922 42.8853 226.766 42.8853 250.36V621H391.989V250.302C391.989 230.026 388.568 210.235 381.828 191.401C391.344 195.412 398.885 198.141 398.885 198.141ZM389.312 618.276H45.6665V250.302C45.6665 155.506 122.755 78.3545 217.489 78.3545C266.088 78.3545 310.031 98.6357 341.307 131.214C329.385 123.245 319.974 117.735 319.974 117.735C319.974 117.735 328.318 124.422 339.703 132.443C315.698 130.948 296.828 131.214 296.828 131.214C296.828 131.214 315.963 134.157 340.453 135.974C328.26 144.266 319.12 151.276 319.12 151.276C319.12 151.276 329.437 145.443 342.271 137.047C335.156 152.719 330.13 165.349 330.13 165.349C330.13 165.349 335.802 154.756 342.588 140.417C340.667 170.271 340.292 193.646 340.292 193.646C340.292 193.646 343.229 169.787 345.474 139.344C351.786 154.271 357.182 165.349 357.182 165.349C357.182 165.349 352.802 152.719 346.437 137.047C346.651 137.209 346.864 137.365 347.135 137.526C360.125 152.453 370.552 169.573 377.823 188.297C368.411 184.287 360.927 181.61 360.927 181.61C360.927 181.61 368.515 185.516 378.406 189.901C378.515 190.224 378.677 190.599 378.781 190.922C374.505 200.818 371.62 208.896 371.62 208.896C371.62 208.896 375.255 201.886 379.37 192.578C385.838 210.61 389.312 230.084 389.312 250.302V618.276Z" fill="white"/>
</g>
</svg>
