<svg width="395" height="373" viewBox="0 0 395 373" fill="none" xmlns="http://www.w3.org/2000/svg">
<g clip-path="url(#clip0_512_342)">
<path d="M328.371 372.605C324.94 372.211 322.874 371.638 320.378 370.421C317.415 368.988 315.348 366.947 313.204 363.33C309.148 356.561 306.731 354.627 300.843 353.517C298.347 353.052 294.916 352.944 281.152 352.98C271.989 352.98 259.277 353.123 252.961 353.302C246.644 353.481 231.359 353.875 219.037 354.198C206.716 354.484 195.291 354.878 193.692 355.021C188.584 355.487 227.811 355.809 245.747 355.451C270.585 354.95 280.606 354.985 285.987 355.63C288.521 355.952 291.095 356.346 291.758 356.561C294.175 357.313 295.891 358.817 298.971 362.972C300.648 365.3 302.949 367.914 304.04 368.809C306.302 370.671 309.304 371.853 312.346 372.068C313.437 372.14 313.944 372.14 313.398 372.032C306.887 371.03 303.923 368.881 299.751 362.255C296.632 357.313 293.668 355.165 289.106 354.556C285.636 354.054 287.547 353.983 292.382 354.377C303.533 355.308 306.302 356.705 311.098 363.903C315.309 370.206 320.651 373.071 328.021 372.964L330.75 372.892L328.371 372.605Z" fill="white"/>
<path d="M343.034 371.209C347.284 370.35 355.433 367.807 355.043 367.449C354.965 367.342 353.366 367.736 351.573 368.309C345.256 370.242 341.24 370.959 336.21 370.994C331.024 370.994 328.139 370.457 324.044 368.738C321.237 367.521 318.312 365.193 317.26 363.259C316.168 361.289 316.246 358.639 317.494 357.314C319.014 355.667 320.34 355.344 324.629 355.559C329.308 355.774 332.272 356.598 339.251 359.642C344.242 361.826 344.671 361.934 345.763 361.54C346.426 361.289 346.933 360.967 346.933 360.824C346.933 360.537 340.733 357.815 336.288 356.132C329.776 353.661 322.368 352.802 319.053 354.127C311.762 357.099 313.594 365.336 322.524 369.49C327.827 371.961 335.898 372.642 343.034 371.209Z" fill="white"/>
<path d="M380.855 370.385C383.038 369.919 385.924 368.559 385.924 367.95C385.924 367.448 384.13 367.556 381.986 368.2C380.426 368.666 379.061 368.773 375.279 368.594C369.508 368.38 363.971 367.126 356.485 364.369C352.157 362.793 351.26 362.578 350.129 362.829C349.427 363.008 348.803 363.294 348.764 363.437C348.647 363.831 353.911 365.908 359.253 367.627C367.325 370.17 376.293 371.352 380.855 370.385Z" fill="white"/>
<path d="M332.66 366.446C333.245 365.909 333.674 365.085 333.674 364.584C333.674 363.689 332.699 361.54 332.27 361.54C332.192 361.54 332.348 362.005 332.699 362.614C333.011 363.187 333.284 364.047 333.284 364.548C333.284 365.694 331.607 366.912 330.009 366.912C328.176 366.912 324.901 365.264 323.341 363.581C320.923 361.003 321.196 358.567 324.004 357.672C325.252 357.278 325.252 357.242 323.419 357.386C315.776 357.923 321.001 366.697 329.268 367.198C331.451 367.342 331.763 367.27 332.66 366.446Z" fill="white"/>
<path d="M387.913 365.73C392.358 363.545 393.177 356.347 390.252 345.639C389.199 341.878 386.275 334.573 384.715 331.815L384.013 330.562L383.506 331.815C382.922 333.283 382.844 332.889 384.754 337.187C388.225 345.066 389.823 351.333 389.823 356.848C389.823 360.68 389.277 362.471 387.796 363.76C386.821 364.584 386.275 364.763 384.598 364.763C383.428 364.763 382.064 364.512 381.245 364.118C379.724 363.366 377.502 360.644 377.034 358.889C376.644 357.529 375.396 357.135 375.396 358.388C375.435 360.752 378.204 364.369 380.972 365.658C383.467 366.804 385.651 366.804 387.913 365.73Z" fill="white"/>
<path d="M342.369 364.548C344.513 363.474 352.663 360.752 357.771 359.355C368.416 356.526 375.629 355.81 379.801 357.242C382.726 358.245 385.533 361.039 385.533 362.973C385.533 363.832 386.235 363.796 386.82 362.901C387.912 361.325 384.948 357.923 381.127 356.311C378.982 355.416 378.32 355.309 374.81 355.309C370.014 355.344 364.126 356.526 356.055 359.069C351.025 360.609 340.692 364.62 340.692 364.978C340.692 365.229 341.277 365.085 342.369 364.548Z" fill="white"/>
<path d="M332.115 361.038C332.115 360.966 331.803 360.68 331.413 360.429C330.828 359.964 330.789 359.999 331.296 360.572C331.803 361.145 332.115 361.324 332.115 361.038Z" fill="white"/>
<path d="M328.722 358.639C328.449 358.388 328.137 358.281 328.02 358.388C327.903 358.496 328.098 358.71 328.488 358.818C329.034 359.033 329.073 358.997 328.722 358.639Z" fill="white"/>
<path d="M326.343 357.707C326.07 357.6 325.719 357.636 325.602 357.743C325.446 357.851 325.68 357.958 326.109 357.922C326.538 357.922 326.655 357.815 326.343 357.707Z" fill="white"/>
<path d="M376.566 352.443C376.566 347.859 381.518 331.994 384.832 325.977C385.261 325.189 385.495 324.509 385.417 324.437C385.183 324.222 382.648 329.415 380.621 334.178C378.164 340.087 375.942 347.429 375.201 352.335C374.967 353.875 375.045 354.018 375.747 354.018C376.449 354.018 376.566 353.804 376.566 352.443Z" fill="white"/>
<path d="M373.291 351.619V349.757L371.38 349.363C370.328 349.184 369.119 348.826 368.69 348.611C367.598 348.074 367.52 348.288 368.144 350.115C368.456 350.974 368.807 352.12 368.924 352.622C369.119 353.481 369.275 353.553 371.185 353.517H373.252L373.291 351.619Z" fill="white"/>
<path d="M389.083 335.898C390.486 332.603 392.241 327.375 392.748 324.903C393.489 321.251 393.489 315.091 392.709 312.118C392.007 309.325 389.941 305.278 388.303 303.487C384.794 299.62 379.335 298.474 376.176 300.909C373.954 302.592 373.252 304.347 373.291 308.179C373.33 313.157 374.773 317.454 379.413 326.408L381.206 329.81L381.83 328.556L382.454 327.339L380.153 322.862C377.346 317.419 375.981 313.766 375.435 310.256C374.578 304.454 376.371 301.374 380.621 301.374C384.248 301.374 387.289 303.738 389.668 308.358C391.656 312.154 392.28 314.947 392.241 319.46C392.202 323.972 391.5 327.554 389.59 332.854C388.849 334.895 388.342 336.65 388.459 336.757C388.537 336.865 388.849 336.471 389.083 335.898Z" fill="white"/>
<path d="M386.627 316.881C386.9 316.774 387.368 316.237 387.68 315.7C389.434 312.62 386.783 306.818 382.766 304.956C380.817 304.025 379.959 304.06 378.711 305.063C377.892 305.708 377.62 306.281 377.503 307.642C377.386 309.396 377.386 309.396 377.814 308.25C378.048 307.57 378.672 306.782 379.179 306.496C381.909 304.848 387.134 309.11 387.757 313.515C387.991 315.198 386.822 316.666 385.028 316.881L383.78 317.025L384.95 317.06C385.574 317.06 386.354 316.989 386.627 316.881Z" fill="white"/>
<path d="M382.61 316.201C382.376 316.022 381.597 315.377 380.856 314.804L379.491 313.729L380.466 314.732C381.012 315.305 381.792 315.914 382.22 316.129C382.649 316.344 382.805 316.344 382.61 316.201Z" fill="white"/>
<path d="M394.463 311.939C394.502 309.289 393.8 306.209 392.553 303.63C391.422 301.303 388.342 298.545 384.13 296.181C379.334 293.424 376.839 290.988 375.825 288.016C374.967 285.438 374.343 281.713 374.07 277.38L373.875 274.336L374.421 276.592C375.591 281.212 377.229 283.038 383.078 286.19C389.433 289.628 391.968 292.385 393.177 297.184L393.722 299.404L393.566 297.614C393.294 294.856 391.929 291.955 389.901 289.878C388.887 288.84 386.08 286.798 383.662 285.33C379.178 282.644 377.385 280.961 376.605 278.705C376.371 278.06 375.942 275.696 375.63 273.44C375.123 269.931 375.084 263.305 375.279 229.211C375.396 204.035 375.357 188.636 375.123 187.848C374.85 186.917 374.694 189.209 374.46 196.622C374.304 202.137 374.031 211.627 373.836 217.751C373.602 223.875 373.291 234.082 373.057 240.492C372.862 246.903 372.667 259.545 372.667 268.641C372.667 283.933 372.706 285.33 373.447 287.944C374.733 292.6 377.034 294.856 383.974 298.294C390.369 301.482 393.099 305.278 394.073 312.261L394.385 314.446L394.463 311.939Z" fill="white"/>
</g>
<path d="M1.4163 310.648C1.83424 307.413 2.44216 305.464 3.73398 303.111C5.25377 300.317 7.41947 298.369 11.2569 296.347C18.4379 292.523 20.4897 290.244 21.6675 284.692C22.1614 282.339 22.2754 279.104 22.2374 266.126C22.2374 257.486 22.0854 245.501 21.8955 239.545C21.7055 233.589 21.2875 219.178 20.9456 207.56C20.6416 195.942 20.2237 185.17 20.0717 183.663C19.5778 178.847 19.2358 215.832 19.6158 232.744C20.1477 256.163 20.1097 265.611 19.4258 270.685C19.0838 273.075 18.6659 275.501 18.4379 276.126C17.64 278.405 16.0443 280.023 11.6369 282.927C9.16722 284.508 6.39361 286.677 5.44374 287.707C3.46801 289.839 2.21419 292.67 1.98622 295.538C1.91023 296.567 1.91023 297.045 2.02422 296.53C3.08807 290.391 5.36775 287.597 12.3968 283.663C17.64 280.722 19.9197 277.927 20.5656 273.626C21.0976 270.354 21.1736 272.155 20.7556 276.714C19.7678 287.229 18.286 289.839 10.649 294.361C3.96195 298.332 0.922368 303.369 1.03635 310.317L1.11234 312.891L1.4163 310.648Z" fill="white"/>
<path d="M2.89667 324.471C3.80854 328.479 6.50616 336.163 6.88611 335.795C7.0001 335.721 6.58215 334.214 5.97424 332.523C3.92252 326.567 3.16263 322.78 3.12463 318.038C3.12463 313.148 3.69455 310.427 5.5183 306.567C6.81012 303.92 9.27978 301.163 11.3315 300.17C13.4212 299.141 16.2328 299.214 17.6386 300.391C19.3864 301.824 19.7283 303.074 19.5004 307.119C19.2724 311.53 18.3985 314.324 15.169 320.905C12.8513 325.611 12.7373 326.016 13.1552 327.045C13.4212 327.67 13.7632 328.148 13.9151 328.148C14.2191 328.148 17.1067 322.302 18.8924 318.111C21.5141 311.971 22.426 304.986 21.0202 301.861C17.8666 294.986 9.1278 296.714 4.72041 305.133C2.09878 310.133 1.37688 317.743 2.89667 324.471Z" fill="white"/>
<path d="M3.77222 360.133C4.26615 362.192 5.70995 364.912 6.35586 364.912C6.88778 364.912 6.7738 363.221 6.08989 361.199C5.59596 359.728 5.48198 358.442 5.67195 354.875C5.89992 349.434 7.22974 344.214 10.1553 337.155C11.8271 333.074 12.0551 332.228 11.7891 331.162C11.5991 330.5 11.2952 329.912 11.1432 329.875C10.7253 329.765 8.52156 334.728 6.69781 339.765C4.00019 347.375 2.74636 355.831 3.77222 360.133Z" fill="white"/>
<path d="M7.9502 314.692C8.52012 315.243 9.394 315.647 9.92592 315.647C10.8758 315.647 13.1555 314.728 13.1555 314.324C13.1555 314.25 12.6615 314.397 12.0156 314.728C11.4077 315.022 10.4958 315.28 9.96392 315.28C8.74809 315.28 7.45627 313.699 7.45627 312.192C7.45627 310.464 9.20402 307.375 10.9898 305.905C13.7254 303.625 16.309 303.883 17.2589 306.53C17.6768 307.706 17.7148 307.706 17.5629 305.978C16.9929 298.773 7.68423 303.699 7.15231 311.493C7.00033 313.552 7.07632 313.846 7.9502 314.692Z" fill="white"/>
<path d="M8.71067 366.787C11.0283 370.978 18.6653 371.75 30.0257 368.993C34.0152 368 41.7661 365.243 44.6917 363.772L46.0215 363.111L44.6917 362.633C43.1339 362.081 43.5518 362.008 38.9925 363.809C30.6336 367.081 23.9845 368.589 18.1334 368.589C14.0679 368.589 12.1682 368.074 10.8004 366.677C9.9265 365.758 9.73652 365.243 9.73652 363.662C9.73652 362.559 10.0025 361.272 10.4204 360.5C11.2183 359.067 14.1059 356.971 15.9677 356.53C17.4115 356.162 17.8294 354.986 16.4996 354.986C13.9919 355.022 10.1545 357.633 8.78666 360.243C7.57082 362.596 7.57082 364.655 8.71067 366.787Z" fill="white"/>
<path d="M9.96494 323.846C11.1048 325.868 13.9924 333.552 15.4742 338.368C18.4758 348.405 19.2357 355.206 17.7159 359.14C16.652 361.897 13.6884 364.545 11.6367 364.545C10.7248 364.545 10.7628 365.206 11.7127 365.758C13.3845 366.787 16.994 363.993 18.7037 360.39C19.6536 358.368 19.7676 357.743 19.7676 354.434C19.7296 349.912 18.4758 344.361 15.7781 336.75C14.1444 332.008 9.88895 322.265 9.509 322.265C9.24304 322.265 9.39502 322.817 9.96494 323.846Z" fill="white"/>
<path d="M13.6876 314.177C13.7636 314.177 14.0676 313.883 14.3336 313.515C14.8275 312.964 14.7895 312.927 14.1816 313.405C13.5737 313.883 13.3837 314.177 13.6876 314.177Z" fill="white"/>
<path d="M16.233 310.978C16.499 310.721 16.6129 310.427 16.499 310.316C16.385 310.206 16.157 310.39 16.043 310.758C15.8151 311.272 15.853 311.309 16.233 310.978Z" fill="white"/>
<path d="M17.2222 308.736C17.3362 308.479 17.2982 308.148 17.1842 308.038C17.0702 307.891 16.9562 308.111 16.9942 308.516C16.9942 308.92 17.1082 309.03 17.2222 308.736Z" fill="white"/>
<path d="M22.8067 356.089C27.67 356.089 44.5017 360.758 50.8848 363.883C51.7207 364.287 52.4426 364.508 52.5185 364.434C52.7465 364.214 47.2373 361.824 42.184 359.912C35.9149 357.596 28.1259 355.5 22.9207 354.802C21.2869 354.581 21.1349 354.655 21.1349 355.317C21.1349 355.978 21.3629 356.089 22.8067 356.089Z" fill="white"/>
<path d="M23.68 353H25.6558L26.0737 351.199C26.2637 350.206 26.6436 349.066 26.8716 348.662C27.4415 347.632 27.2135 347.559 25.2758 348.147C24.3639 348.441 23.1481 348.772 22.6162 348.882C21.7043 349.066 21.6283 349.213 21.6663 351.015V352.963L23.68 353Z" fill="white"/>
<path d="M40.3612 367.89C43.8567 369.213 49.4039 370.868 52.0255 371.346C55.901 372.044 62.4361 372.044 65.5897 371.309C68.5532 370.647 72.8466 368.699 74.7464 367.155C78.8498 363.846 80.0656 358.699 77.482 355.721C75.6963 353.625 73.8345 352.964 69.7691 353C64.4878 353.037 59.9284 354.397 50.4298 358.772L46.8203 360.464L48.1501 361.052L49.4419 361.64L54.1912 359.471C59.9664 356.824 63.8419 355.537 67.5654 355.022C73.7205 354.214 76.9881 355.905 76.9881 359.912C76.9881 363.331 74.4804 366.199 69.5791 368.441C65.5517 370.316 62.5881 370.905 57.8007 370.868C53.0134 370.831 49.2139 370.169 43.5907 368.368C41.425 367.669 39.5633 367.191 39.4493 367.302C39.3353 367.375 39.7532 367.669 40.3612 367.89Z" fill="white"/>
<path d="M60.5347 365.574C60.6487 365.831 61.2186 366.272 61.7885 366.566C65.0561 368.221 71.2112 365.721 73.1869 361.934C74.1748 360.096 74.1368 359.287 73.073 358.111C72.389 357.339 71.7811 357.081 70.3373 356.971C68.4756 356.861 68.4756 356.861 69.6914 357.265C70.4133 357.486 71.2492 358.074 71.5532 358.552C73.3009 361.125 68.7795 366.052 64.1062 366.64C62.3204 366.861 60.7627 365.758 60.5347 364.066L60.3827 362.89L60.3447 363.993C60.3447 364.581 60.4207 365.316 60.5347 365.574Z" fill="white"/>
<path d="M61.2573 361.787C61.4472 361.566 62.1311 360.831 62.7391 360.133L63.8789 358.846L62.8151 359.765C62.2071 360.28 61.5612 361.015 61.3333 361.419C61.1053 361.824 61.1053 361.971 61.2573 361.787Z" fill="white"/>
<path d="M65.7786 372.963C68.5903 373 71.8578 372.338 74.5934 371.162C77.0631 370.096 79.9887 367.191 82.4963 363.221C85.4219 358.699 88.0056 356.346 91.1591 355.39C93.8947 354.581 97.8462 353.993 102.444 353.736L105.673 353.552L103.279 354.066C98.3781 355.169 96.4404 356.713 93.0968 362.228C89.4494 368.221 86.5238 370.61 81.4325 371.75L79.0768 372.265L80.9765 372.118C83.9021 371.86 86.9797 370.574 89.1834 368.662C90.2852 367.706 92.4509 365.059 94.0087 362.78C96.8583 358.552 98.6441 356.86 101.038 356.125C101.722 355.905 104.229 355.5 106.623 355.206C110.346 354.728 117.375 354.691 153.546 354.875C180.257 354.986 196.594 354.949 197.43 354.728C198.418 354.471 195.987 354.324 188.122 354.103C182.27 353.956 172.202 353.699 165.705 353.515C159.208 353.294 148.379 353 141.578 352.78C134.777 352.596 121.365 352.412 111.714 352.412C95.4905 352.412 94.0087 352.449 91.2351 353.147C86.2958 354.361 83.9021 356.53 80.2546 363.074C76.8731 369.103 72.8457 371.677 65.4367 372.596L63.119 372.89L65.7786 372.963Z" fill="white"/>
<path d="M394.583 62.352C394.164 65.5873 393.554 67.5358 392.259 69.8888C390.736 72.6829 388.565 74.6314 384.719 76.6534C377.52 80.477 375.464 82.7564 374.283 88.3078C373.788 90.6608 373.674 93.896 373.712 106.874C373.712 115.514 373.864 127.499 374.055 133.455C374.245 139.411 374.664 153.822 375.007 165.44C375.311 177.058 375.73 187.83 375.883 189.337C376.378 194.153 376.721 157.168 376.34 140.256C375.807 116.837 375.845 107.389 376.53 102.315C376.873 99.9254 377.292 97.499 377.52 96.874C378.32 94.5946 379.92 92.9769 384.338 90.0725C386.813 88.4916 389.593 86.3225 390.546 85.2931C392.526 83.1608 393.783 80.3299 394.011 77.4623C394.088 76.4329 394.088 75.9549 393.973 76.4696C392.907 82.6093 390.622 85.4034 383.576 89.3372C378.32 92.2784 376.035 95.0725 375.388 99.374C374.854 102.646 374.778 100.845 375.197 96.2857C376.187 85.7711 377.673 83.1608 385.328 78.6387C392.031 74.6682 395.078 69.6314 394.963 62.6829L394.887 60.1094L394.583 62.352Z" fill="white"/>
<path d="M393.097 48.5286C392.183 44.5213 389.479 36.8375 389.098 37.2051C388.984 37.2786 389.403 38.786 390.012 40.4772C392.069 46.433 392.831 50.2198 392.869 54.9624C392.869 59.8521 392.298 62.5727 390.469 66.433C389.175 69.08 386.699 71.8374 384.642 72.83C382.548 73.8594 379.729 73.7859 378.32 72.6094C376.568 71.1756 376.226 69.9256 376.454 65.8815C376.683 61.4697 377.559 58.6756 380.796 52.0948C383.119 47.3889 383.233 46.9845 382.814 45.9551C382.548 45.3301 382.205 44.8522 382.053 44.8522C381.748 44.8522 378.853 50.6977 377.063 54.8889C374.436 61.0286 373.521 68.0138 374.931 71.1388C378.092 78.0138 386.851 76.2859 391.269 67.8668C393.897 62.8668 394.621 55.2565 393.097 48.5286Z" fill="white"/>
<path d="M392.22 12.8673C391.725 10.8085 390.277 8.08789 389.63 8.08789C389.097 8.08789 389.211 9.77906 389.897 11.8011C390.392 13.2717 390.506 14.5585 390.316 18.1246C390.087 23.5658 388.754 28.7864 385.821 35.8452C384.146 39.926 383.917 40.7716 384.184 41.8378C384.374 42.4996 384.679 43.0878 384.831 43.1245C385.25 43.2348 387.459 38.2716 389.287 33.2349C391.991 25.6246 393.248 17.1687 392.22 12.8673Z" fill="white"/>
<path d="M388.032 58.3084C387.461 57.7569 386.585 57.3525 386.051 57.3525C385.099 57.3525 382.814 58.2717 382.814 58.6761C382.814 58.7496 383.309 58.6025 383.957 58.2717C384.566 57.9775 385.48 57.7202 386.013 57.7202C387.232 57.7202 388.527 59.3011 388.527 60.8084C388.527 62.5363 386.775 65.6246 384.985 67.0952C382.243 69.3746 379.653 69.1172 378.701 66.4702C378.282 65.2937 378.244 65.2937 378.396 67.0216C378.968 74.2275 388.299 69.301 388.832 61.5069C388.984 59.4481 388.908 59.154 388.032 58.3084Z" fill="white"/>
<path d="M387.269 6.21291C384.946 2.02174 377.291 1.24969 365.903 4.00703C361.904 4.99968 354.135 7.75702 351.202 9.22761L349.869 9.88937L351.202 10.3673C352.764 10.9188 352.345 10.9923 356.915 9.19084C365.294 5.91879 371.959 4.41144 377.824 4.41144C381.899 4.41144 383.803 4.92615 385.174 6.3232C386.05 7.24232 386.241 7.75702 386.241 9.3379C386.241 10.4408 385.974 11.7276 385.555 12.4997C384.755 13.9335 381.861 16.0291 379.995 16.4702C378.547 16.8379 378.129 18.0143 379.462 18.0143C381.975 17.9776 385.822 15.3673 387.193 12.757C388.412 10.4041 388.412 8.34526 387.269 6.21291Z" fill="white"/>
<path d="M386.014 49.1539C384.871 47.1318 381.976 39.448 380.491 34.6319C377.482 24.5951 376.721 17.7937 378.244 13.8599C379.311 11.1025 382.281 8.45547 384.338 8.45547C385.252 8.45547 385.214 7.79371 384.262 7.24224C382.586 6.21283 378.968 9.00694 377.254 12.6099C376.302 14.6319 376.188 15.2569 376.188 18.5657C376.226 23.0878 377.482 28.6392 380.186 36.2495C381.824 40.9921 386.09 50.7348 386.471 50.7348C386.737 50.7348 386.585 50.1833 386.014 49.1539Z" fill="white"/>
<path d="M382.28 58.8232C382.203 58.8232 381.899 59.1174 381.632 59.485C381.137 60.0365 381.175 60.0732 381.784 59.5953C382.394 59.1174 382.584 58.8232 382.28 58.8232Z" fill="white"/>
<path d="M379.729 62.0218C379.462 62.2792 379.348 62.5733 379.462 62.6836C379.576 62.7939 379.805 62.61 379.919 62.2424C380.148 61.7277 380.11 61.6909 379.729 62.0218Z" fill="white"/>
<path d="M378.739 64.2638C378.625 64.5212 378.663 64.8521 378.777 64.9624C378.891 65.1094 379.006 64.8888 378.967 64.4844C378.967 64.08 378.853 63.9697 378.739 64.2638Z" fill="white"/>
<path d="M373.139 16.9113C368.264 16.9113 351.392 12.2422 344.994 9.11724C344.156 8.71283 343.433 8.49224 343.356 8.56577C343.128 8.78636 348.65 11.1761 353.716 13.0878C360 15.404 367.807 17.4996 373.025 18.1981C374.663 18.4187 374.815 18.3452 374.815 17.6834C374.815 17.0216 374.586 16.9113 373.139 16.9113Z" fill="white"/>
<path d="M372.264 19.999H370.283L369.864 21.8005C369.674 22.7931 369.293 23.9328 369.065 24.3372C368.493 25.3667 368.722 25.4402 370.664 24.852C371.578 24.5578 372.797 24.227 373.33 24.1167C374.244 23.9328 374.32 23.7858 374.282 21.9843V20.0358L372.264 19.999Z" fill="white"/>
<path d="M355.545 5.11003C352.041 3.7865 346.481 2.13209 343.853 1.65415C339.968 0.955627 333.418 0.955627 330.256 1.69092C327.286 2.35268 322.982 4.30121 321.078 5.84532C316.965 9.15413 315.746 14.3012 318.336 17.2791C320.126 19.3747 321.992 20.0365 326.067 19.9997C331.361 19.9629 335.931 18.6026 345.452 14.2276L349.071 12.5365L347.738 11.9482L346.443 11.36L341.682 13.5291C335.893 16.1762 332.008 17.4629 328.276 17.9776C322.106 18.7865 318.831 17.0953 318.831 13.0879C318.831 9.66884 321.344 6.8012 326.257 4.55856C330.295 2.68356 333.265 2.09533 338.064 2.13209C342.863 2.16886 346.671 2.83062 352.308 4.63209C354.479 5.33061 356.345 5.80855 356.459 5.69826C356.573 5.62473 356.154 5.33061 355.545 5.11003Z" fill="white"/>
<path d="M335.321 7.42619C335.207 7.16884 334.636 6.72766 334.065 6.43354C330.789 4.77914 324.619 7.27913 322.639 11.0659C321.649 12.9041 321.687 13.7129 322.753 14.8894C323.439 15.6615 324.048 15.9188 325.495 16.0291C327.362 16.1394 327.362 16.1394 326.143 15.735C325.419 15.5144 324.581 14.9262 324.277 14.4482C322.525 11.8747 327.057 6.94825 331.741 6.36001C333.531 6.13943 335.093 7.24236 335.321 8.93354L335.474 10.11L335.512 9.00707C335.512 8.41883 335.436 7.68354 335.321 7.42619Z" fill="white"/>
<path d="M334.597 11.213C334.406 11.4336 333.721 12.1689 333.111 12.8674L331.969 14.1542L333.035 13.2351C333.645 12.7204 334.292 11.9851 334.52 11.5807C334.749 11.1762 334.749 11.0292 334.597 11.213Z" fill="white"/>
<path d="M330.065 0.0366109C327.247 -0.000153742 323.972 0.661609 321.23 1.83808C318.754 2.90425 315.821 5.80865 313.308 9.77923C310.375 14.3013 307.785 16.6542 304.624 17.6101C301.882 18.4189 297.921 19.0071 293.313 19.2645L290.076 19.4483L292.475 18.9336C297.388 17.8307 299.33 16.2866 302.682 10.7719C306.338 4.77924 309.271 2.38954 314.374 1.24984L316.735 0.735138L314.831 0.882197C311.899 1.13955 308.814 2.42631 306.605 4.33807C305.5 5.29395 303.329 7.941 301.768 10.2204C298.911 14.4483 297.121 16.1395 294.722 16.8748C294.037 17.0954 291.523 17.4998 289.124 17.7939C285.391 18.2718 278.345 18.3086 242.088 18.1248C215.314 18.0145 198.937 18.0513 198.099 18.2718C197.109 18.5292 199.547 18.6763 207.43 18.8968C213.296 19.0439 223.388 19.3013 229.901 19.4851C236.413 19.7057 247.268 19.9998 254.085 20.2204C260.902 20.4042 274.346 20.588 284.02 20.588C300.283 20.588 301.768 20.5513 304.548 19.8527C309.499 18.6395 311.899 16.4704 315.555 9.92629C318.944 3.89689 322.981 1.32337 330.408 0.404257L332.731 0.11014L330.065 0.0366109Z" fill="white"/>
<path d="M66.2844 0.394621C69.7237 0.788562 71.7951 1.36157 74.2964 2.5792C77.2667 4.01171 79.3381 6.05304 81.4877 9.67013C85.5523 16.4387 87.9754 18.3726 93.877 19.4828C96.3783 19.9484 99.8176 20.0558 113.614 20.02C122.798 20.02 135.539 19.8768 141.871 19.6977C148.202 19.5186 163.523 19.1247 175.873 18.8024C188.223 18.5159 199.674 18.1219 201.277 17.9787C206.397 17.5131 167.079 17.1908 149.101 17.5489C124.205 18.0503 114.161 18.0145 108.768 17.3699C106.227 17.0476 103.648 16.6536 102.983 16.4387C100.56 15.6867 98.8405 14.1825 95.7529 10.0283C94.0724 7.70043 91.7665 5.08609 90.6722 4.19078C88.4054 2.32851 85.396 1.14669 82.3475 0.931813C81.2532 0.860187 80.7451 0.860187 81.2923 0.967626C87.8191 1.97038 90.7894 4.11915 94.9713 10.7445C98.0979 15.6867 101.068 17.8354 105.641 18.4443C109.119 18.9456 107.204 19.0173 102.358 18.6233C91.1802 17.6922 88.4054 16.2955 83.5982 9.09713C79.3772 2.79408 74.0229 -0.0709447 66.6362 0.0364936L63.9004 0.108119L66.2844 0.394621Z" fill="white"/>
<path d="M51.5882 1.79065C47.3281 2.65015 39.1598 5.19286 39.5506 5.55099C39.6288 5.65843 41.2312 5.26449 43.029 4.69148C49.3604 2.75759 53.386 2.04134 58.4277 2.00552C63.6257 2.00552 66.5178 2.54271 70.6215 4.26173C73.4355 5.47936 76.3667 7.80719 77.4219 9.74108C78.5163 11.7108 78.4381 14.3609 77.1875 15.686C75.6632 17.3334 74.3344 17.6557 70.0353 17.4408C65.3453 17.226 62.375 16.4023 55.3792 13.3582C50.3766 11.1736 49.9467 11.0662 48.8524 11.4601C48.188 11.7108 47.6799 12.0331 47.6799 12.1764C47.6799 12.4629 53.8941 15.1846 58.3495 16.8678C64.8763 19.3389 72.3021 20.1984 75.6241 18.8733C82.9326 15.9009 81.0957 7.66394 72.1458 3.50966C66.8305 1.03858 58.7403 0.358135 51.5882 1.79065Z" fill="white"/>
<path d="M13.6784 2.61494C11.4898 3.08051 8.59766 4.44139 8.59766 5.05021C8.59766 5.55159 10.3955 5.44415 12.545 4.79952C14.1083 4.33396 15.4762 4.22652 19.2673 4.40558C25.0515 4.62046 30.6013 5.87391 38.1052 8.63149C42.4434 10.2072 43.3423 10.4221 44.4757 10.1714C45.1792 9.99237 45.8045 9.70587 45.8436 9.56262C45.9609 9.16868 40.6847 7.09154 35.3303 5.37253C27.2402 2.82982 18.2511 1.648 13.6784 2.61494Z" fill="white"/>
<path d="M61.9849 6.55379C61.3987 7.09099 60.9688 7.91468 60.9688 8.41606C60.9688 9.31138 61.9458 11.4601 62.3757 11.4601C62.4539 11.4601 62.2976 10.9946 61.9458 10.3858C61.6332 9.81276 61.3596 8.95325 61.3596 8.45187C61.3596 7.30586 63.0401 6.08823 64.6425 6.08823C66.4794 6.08823 69.7624 7.73562 71.3257 9.41882C73.7488 11.9973 73.4753 14.4326 70.6613 15.3279C69.4107 15.7219 69.4107 15.7577 71.2475 15.6144C78.9078 15.0772 73.6707 6.30311 65.3851 5.80173C63.1965 5.65848 62.8838 5.7301 61.9849 6.55379Z" fill="white"/>
<path d="M6.60469 7.27034C2.14924 9.45492 1.3285 16.6533 4.25972 27.3613C5.31496 31.1216 8.24617 38.4274 9.80949 41.185L10.513 42.4385L11.0211 41.185C11.6073 39.7167 11.6855 40.1106 9.7704 35.8131C6.29203 27.9343 4.68963 21.6671 4.68963 16.1519C4.68963 12.3199 5.23679 10.5293 6.72194 9.24004C7.69901 8.41635 8.24617 8.23728 9.92674 8.23728C11.0992 8.23728 12.4671 8.48797 13.2879 8.88191C14.8121 9.63398 17.0398 12.3558 17.5088 14.1106C17.8996 15.4715 19.1503 15.8654 19.1503 14.612C19.1112 12.2483 16.3363 8.63122 13.5614 7.34196C11.0601 6.19596 8.8715 6.19596 6.60469 7.27034Z" fill="white"/>
<path d="M52.2527 8.45171C50.1031 9.52609 41.9348 12.2479 36.815 13.6446C26.1453 16.4738 18.915 17.19 14.7332 15.7575C11.8019 14.7548 8.98797 11.9614 8.98797 10.0275C8.98797 9.16797 8.28448 9.20378 7.69823 10.0991C6.60391 11.6749 9.57421 15.0771 13.4043 16.6886C15.5539 17.584 16.2183 17.6914 19.7358 17.6914C24.543 17.6556 30.4445 16.4738 38.5346 13.9311C43.5763 12.3911 53.9333 8.38009 53.9333 8.02196C53.9333 7.77127 53.347 7.91452 52.2527 8.45171Z" fill="white"/>
<path d="M62.5312 11.962C62.5312 12.0337 62.8439 12.3202 63.2347 12.5709C63.821 13.0364 63.8601 13.0006 63.352 12.4276C62.8439 11.8546 62.5312 11.6755 62.5312 11.962Z" fill="white"/>
<path d="M65.9328 14.3611C66.2064 14.6118 66.519 14.7193 66.6363 14.6118C66.7535 14.5044 66.5581 14.2895 66.1673 14.1821C65.6201 13.9672 65.581 14.003 65.9328 14.3611Z" fill="white"/>
<path d="M68.3173 15.2926C68.5909 15.4 68.9426 15.3642 69.0598 15.2567C69.2162 15.1493 68.9817 15.0419 68.5518 15.0777C68.1219 15.0777 68.0046 15.1851 68.3173 15.2926Z" fill="white"/>
<path d="M17.9785 20.5573C17.9785 25.1413 13.015 41.0064 9.69293 47.0229C9.26302 47.8108 9.02852 48.4913 9.10669 48.5629C9.34119 48.7778 11.8816 43.5849 13.9139 38.8218C16.3761 32.9127 18.6038 25.5711 19.3464 20.6647C19.5809 19.1248 19.5027 18.9815 18.7992 18.9815C18.0958 18.9815 17.9785 19.1964 17.9785 20.5573Z" fill="white"/>
<path d="M21.2598 21.3809V23.2432L23.1748 23.6372C24.2301 23.8162 25.4416 24.1743 25.8715 24.3892C26.9659 24.9264 27.044 24.7115 26.4187 22.8851C26.106 22.0256 25.7543 20.8796 25.637 20.3782C25.4416 19.5187 25.2853 19.4471 23.3702 19.4829H21.2988L21.2598 21.3809Z" fill="white"/>
<path d="M5.43296 37.102C4.02598 40.3968 2.26725 45.6255 1.75917 48.0966C1.0166 51.7495 1.0166 57.9093 1.79825 60.8817C2.50175 63.6751 4.57314 67.722 6.21462 69.5126C9.73208 73.3804 15.2037 74.5264 18.3694 72.0911C20.5971 70.4079 21.3006 68.6531 21.2615 64.8211C21.2224 59.8432 19.7764 55.5456 15.1255 46.5924L13.3277 43.1902L12.7024 44.4437L12.0771 45.6613L14.3829 50.1379C17.1969 55.5814 18.5648 59.2343 19.112 62.744C19.9718 68.5457 18.174 71.6256 13.9139 71.6256C10.2792 71.6256 7.23077 69.2619 4.84672 64.6421C2.85349 60.8459 2.22817 58.0525 2.26725 53.5401C2.30633 49.0277 3.00982 45.4464 4.92488 40.1461C5.66746 38.1048 6.17554 36.35 6.05829 36.2425C5.98012 36.1351 5.66746 36.529 5.43296 37.102Z" fill="white"/>
<path d="M7.89458 56.1187C7.621 56.2261 7.15201 56.7633 6.83935 57.3005C5.08062 60.3804 7.73825 66.182 11.7638 68.0443C13.7179 68.9754 14.5778 68.9396 15.8284 67.9369C16.6491 67.2922 16.9227 66.7192 17.04 65.3584C17.1572 63.6035 17.1572 63.6035 16.7273 64.7495C16.4928 65.43 15.8675 66.2179 15.3594 66.5044C12.6236 68.1518 7.38651 63.89 6.76118 59.4851C6.52668 57.8019 7.69917 56.3335 9.49698 56.1187L10.7476 55.9754L9.57515 55.9396C8.94982 55.9396 8.16817 56.0112 7.89458 56.1187Z" fill="white"/>
<path d="M11.9191 56.7994C12.1536 56.9785 12.9353 57.6231 13.6778 58.1961L15.0457 59.2705L14.0687 58.2678C13.5215 57.6947 12.7399 57.0859 12.3099 56.8711C11.88 56.6562 11.7237 56.6562 11.9191 56.7994Z" fill="white"/>
<path d="M0.0386557 61.061C-0.000427168 63.7112 0.703064 66.7911 1.95372 69.3696C3.08712 71.6974 6.17467 74.455 10.3956 76.8187C15.2028 79.5762 17.7041 82.0115 18.7203 84.984C19.5801 87.5625 20.2054 91.287 20.479 95.6204L20.6744 98.6644L20.1272 96.4082C18.9548 91.7884 17.3133 89.9619 11.4509 86.8104C5.08035 83.3724 2.53996 80.6148 1.32839 75.8159L0.78123 73.5955L0.937562 75.3861C1.21114 78.1437 2.57904 81.0446 4.61135 83.1217C5.62751 84.1603 8.44147 86.2016 10.8646 87.6699C15.3591 90.3559 17.157 92.0391 17.9386 94.2953C18.1731 94.9399 18.603 97.3036 18.9157 99.5598C19.4238 103.069 19.4628 109.695 19.2674 143.789C19.1502 168.965 19.1893 184.364 19.4238 185.152C19.6973 186.083 19.8537 183.791 20.0882 176.378C20.2445 170.863 20.5181 161.373 20.7135 155.249C20.948 149.125 21.2607 138.918 21.4951 132.508C21.6906 126.097 21.886 113.455 21.886 104.359C21.886 89.0666 21.8469 87.6699 21.1043 85.0556C19.8146 80.3999 17.5087 78.1437 10.5519 74.7057C4.14236 71.5184 1.40656 67.7222 0.429484 60.7387L0.116821 58.5541L0.0386557 61.061Z" fill="white"/>
<defs>
<clipPath id="clip0_512_342">
<rect width="214.457" height="196.97" fill="white" transform="matrix(-1 0 0 -1 394.502 373)"/>
</clipPath>
</defs>
</svg>
