<svg width="559" height="766" viewBox="0 0 559 766" fill="none" xmlns="http://www.w3.org/2000/svg">
<mask id="mask0_392_914" style="mask-type:luminance" maskUnits="userSpaceOnUse" x="0" y="764" width="559" height="3">
<path d="M0 764.178H559V766.001H0V764.178Z" fill="white"/>
</mask>
<g mask="url(#mask0_392_914)">
<path fill-rule="evenodd" clip-rule="evenodd" d="M1.16675 765.907H558.167C558.537 765.907 558.839 765.61 558.839 765.24C558.839 764.87 558.537 764.573 558.167 764.573H1.16675C0.796957 764.573 0.494873 764.87 0.494873 765.24C0.494873 765.61 0.796957 765.907 1.16675 765.907Z" fill="white"/>
<path fill-rule="evenodd" clip-rule="evenodd" d="M1.16675 765.907H558.167C558.537 765.907 558.839 765.61 558.839 765.24C558.839 764.87 558.537 764.573 558.167 764.573H1.16675C0.796957 764.573 0.494873 764.87 0.494873 765.24C0.494873 765.61 0.796957 765.907 1.16675 765.907Z" fill="white"/>
</g>
<mask id="mask1_392_914" style="mask-type:luminance" maskUnits="userSpaceOnUse" x="525" y="374" width="34" height="53">
<path d="M525.141 374.844H559V426.844H525.141V374.844Z" fill="white"/>
</mask>
<g mask="url(#mask1_392_914)">
<path fill-rule="evenodd" clip-rule="evenodd" d="M526.422 376.776L557.609 425.38C557.807 425.692 558.219 425.781 558.531 425.583C558.839 425.385 558.932 424.969 558.734 424.661L527.547 376.052C527.349 375.745 526.938 375.651 526.625 375.854C526.318 376.052 526.224 376.463 526.422 376.776Z" fill="white"/>
</g>
<mask id="mask2_392_914" style="mask-type:luminance" maskUnits="userSpaceOnUse" x="0" y="374" width="34" height="53">
<path d="M0 374.844H33.1406V426.844H0V374.844Z" fill="white"/>
</mask>
<g mask="url(#mask2_392_914)">
<path fill-rule="evenodd" clip-rule="evenodd" d="M31.8281 376.052L0.645818 424.661C0.447902 424.969 0.536442 425.385 0.843734 425.583C1.15623 425.781 1.56769 425.692 1.77082 425.38L32.9531 376.776C33.151 376.463 33.0625 376.052 32.7552 375.854C32.4427 375.651 32.0312 375.745 31.8281 376.052Z" fill="white"/>
</g>
<mask id="mask3_392_914" style="mask-type:luminance" maskUnits="userSpaceOnUse" x="525" y="374" width="34" height="101">
<path d="M525.141 374.844H559V474.844H525.141V374.844Z" fill="white"/>
</mask>
<g mask="url(#mask3_392_914)">
<path fill-rule="evenodd" clip-rule="evenodd" d="M526.349 376.619L557.536 473.833C557.646 474.182 558.026 474.375 558.375 474.265C558.724 474.151 558.917 473.776 558.807 473.422L527.62 376.208C527.51 375.859 527.13 375.666 526.781 375.776C526.432 375.89 526.24 376.265 526.349 376.619Z" fill="white"/>
</g>
<mask id="mask4_392_914" style="mask-type:luminance" maskUnits="userSpaceOnUse" x="0" y="374" width="34" height="101">
<path d="M0 374.844H33.1406V474.844H0V374.844Z" fill="white"/>
</mask>
<g mask="url(#mask4_392_914)">
<path fill-rule="evenodd" clip-rule="evenodd" d="M31.7551 376.208L0.572854 473.422C0.45827 473.776 0.650977 474.151 1.00515 474.265C1.3541 474.375 1.7291 474.182 1.84369 473.833L33.026 376.619C33.1406 376.265 32.9479 375.89 32.5937 375.776C32.2447 375.666 31.8697 375.859 31.7551 376.208Z" fill="white"/>
</g>
<mask id="mask5_392_914" style="mask-type:luminance" maskUnits="userSpaceOnUse" x="525" y="374" width="34" height="151">
<path d="M525.141 374.844H559V524.177H525.141V374.844Z" fill="white"/>
</mask>
<g mask="url(#mask5_392_914)">
<path fill-rule="evenodd" clip-rule="evenodd" d="M526.333 376.552L557.516 522.375C557.594 522.734 557.948 522.964 558.313 522.891C558.672 522.812 558.901 522.453 558.823 522.094L527.641 376.276C527.563 375.911 527.208 375.682 526.844 375.76C526.484 375.839 526.255 376.193 526.333 376.552Z" fill="white"/>
</g>
<mask id="mask6_392_914" style="mask-type:luminance" maskUnits="userSpaceOnUse" x="0" y="374" width="34" height="151">
<path d="M0 374.844H33.1406V524.177H0V374.844Z" fill="white"/>
</mask>
<g mask="url(#mask6_392_914)">
<path fill-rule="evenodd" clip-rule="evenodd" d="M31.7344 376.276L0.552094 522.094C0.479176 522.453 0.708344 522.812 1.06772 522.891C1.42709 522.964 1.78126 522.734 1.85939 522.375L33.0469 376.552C33.1198 376.193 32.8906 375.839 32.5313 375.76C32.1719 375.682 31.8125 375.911 31.7344 376.276Z" fill="white"/>
</g>
<mask id="mask7_392_914" style="mask-type:luminance" maskUnits="userSpaceOnUse" x="525" y="424" width="34" height="343">
<path d="M525.141 424.178H559V766.001H525.141V424.178Z" fill="white"/>
</mask>
<g mask="url(#mask7_392_914)">
<path fill-rule="evenodd" clip-rule="evenodd" d="M557.505 424.959L526.323 765.204C526.287 765.574 526.557 765.902 526.922 765.933C527.292 765.97 527.62 765.699 527.651 765.334L558.834 425.084C558.87 424.714 558.599 424.391 558.235 424.355C557.865 424.324 557.537 424.595 557.505 424.959Z" fill="white"/>
</g>
<mask id="mask8_392_914" style="mask-type:luminance" maskUnits="userSpaceOnUse" x="0" y="424" width="34" height="343">
<path d="M0 424.178H33.1406V766.001H0V424.178Z" fill="white"/>
</mask>
<g mask="url(#mask8_392_914)">
<path fill-rule="evenodd" clip-rule="evenodd" d="M0.541761 425.084L31.7293 765.334C31.7605 765.699 32.0886 765.97 32.4532 765.933C32.8178 765.902 33.0886 765.574 33.0574 765.204L1.86989 424.959C1.83864 424.595 1.51051 424.324 1.14593 424.355C0.781345 424.391 0.510511 424.714 0.541761 425.084Z" fill="white"/>
</g>
<mask id="mask9_392_914" style="mask-type:luminance" maskUnits="userSpaceOnUse" x="494" y="472" width="65" height="295">
<path d="M494.474 472.178H559V766.001H494.474V472.178Z" fill="white"/>
</mask>
<g mask="url(#mask9_392_914)">
<path fill-rule="evenodd" clip-rule="evenodd" d="M557.515 473.49L495.145 765.131C495.072 765.49 495.302 765.849 495.661 765.927C496.02 766 496.38 765.771 496.453 765.412L558.822 473.771C558.901 473.407 558.671 473.052 558.312 472.974C557.947 472.896 557.593 473.125 557.515 473.49Z" fill="white"/>
</g>
<mask id="mask10_392_914" style="mask-type:luminance" maskUnits="userSpaceOnUse" x="0" y="472" width="66" height="295">
<path d="M0 472.178H65.1406V766.001H0V472.178Z" fill="white"/>
</mask>
<g mask="url(#mask10_392_914)">
<path fill-rule="evenodd" clip-rule="evenodd" d="M0.552094 473.771L62.9271 765.412C63 765.771 63.3542 766 63.7188 765.927C64.0781 765.849 64.3073 765.49 64.2292 765.131L1.85939 473.49C1.78126 473.125 1.42709 472.896 1.06772 472.974C0.708344 473.052 0.479176 473.407 0.552094 473.771Z" fill="white"/>
</g>
<mask id="mask11_392_914" style="mask-type:luminance" maskUnits="userSpaceOnUse" x="463" y="521" width="96" height="245">
<path d="M463.807 521.511H559V766H463.807V521.511Z" fill="white"/>
</mask>
<g mask="url(#mask11_392_914)">
<path fill-rule="evenodd" clip-rule="evenodd" d="M557.547 521.995L463.995 765.032C463.859 765.37 464.031 765.761 464.375 765.891C464.719 766.026 465.104 765.854 465.239 765.506L558.791 522.474C558.927 522.13 558.755 521.745 558.411 521.615C558.067 521.474 557.682 521.651 557.547 521.995Z" fill="white"/>
</g>
<mask id="mask12_392_914" style="mask-type:luminance" maskUnits="userSpaceOnUse" x="0" y="521" width="96" height="245">
<path d="M0 521.511H95.8073V766H0V521.511Z" fill="white"/>
</mask>
<g mask="url(#mask12_392_914)">
<path fill-rule="evenodd" clip-rule="evenodd" d="M0.583292 522.474L94.1354 765.506C94.2708 765.854 94.6562 766.026 95 765.891C95.3437 765.761 95.5156 765.37 95.3854 765.032L1.82808 521.995C1.69788 521.651 1.30725 521.474 0.968708 521.615C0.624958 521.745 0.453084 522.13 0.583292 522.474Z" fill="white"/>
</g>
<mask id="mask13_392_914" style="mask-type:luminance" maskUnits="userSpaceOnUse" x="557" y="374" width="2" height="392">
<path d="M557.141 374.844H559V766H557.141V374.844Z" fill="white"/>
</mask>
<g mask="url(#mask13_392_914)">
<path fill-rule="evenodd" clip-rule="evenodd" d="M557.505 376.417V765.271C557.505 765.641 557.802 765.938 558.172 765.938C558.537 765.938 558.839 765.641 558.839 765.271V376.417C558.839 376.047 558.537 375.745 558.172 375.745C557.802 375.745 557.505 376.047 557.505 376.417Z" fill="white"/>
</g>
<mask id="mask14_392_914" style="mask-type:luminance" maskUnits="userSpaceOnUse" x="0" y="374" width="3" height="392">
<path d="M0 374.844H2.47396V766H0V374.844Z" fill="white"/>
</mask>
<g mask="url(#mask14_392_914)">
<path fill-rule="evenodd" clip-rule="evenodd" d="M0.541748 376.417V765.271C0.541748 765.641 0.838624 765.938 1.20841 765.938C1.573 765.938 1.87508 765.641 1.87508 765.271V376.417C1.87508 376.047 1.573 375.745 1.20841 375.745C0.838624 375.745 0.541748 376.047 0.541748 376.417Z" fill="white"/>
</g>
<mask id="mask15_392_914" style="mask-type:luminance" maskUnits="userSpaceOnUse" x="0" y="0" width="559" height="559">
<path d="M0 0H558.474V558.844H279.237H0V0Z" fill="white"/>
</mask>
<g mask="url(#mask15_392_914)">
<path fill-rule="evenodd" clip-rule="evenodd" d="M0.114502 278.359V557.849C0.114502 558.218 0.416585 558.515 0.781169 558.515C1.15617 558.515 1.44784 558.218 1.44784 557.849V279.26C1.44784 125.869 125.943 1.33822 279.281 1.33822C432.62 1.33822 557.109 125.869 557.109 279.26V557.849C557.109 558.218 557.411 558.515 557.776 558.515C558.151 558.515 558.443 558.218 558.443 557.849V279.26C558.443 125.135 433.354 0.00488281 279.281 0.00488281C125.51 0.00488281 0.614502 124.63 0.114502 278.359ZM557.745 279.927C557.755 279.927 557.771 279.927 557.776 279.927H557.745Z" fill="white"/>
</g>
</svg>
