<svg width="530" height="953" viewBox="0 0 530 953" fill="none" xmlns="http://www.w3.org/2000/svg">
<g clip-path="url(#clip0_512_342)">
<path d="M440.6 951.993C435.996 950.987 433.223 949.523 429.874 946.412C425.898 942.752 423.125 937.536 420.248 928.295C414.806 911.001 411.563 906.06 403.663 903.224C400.314 902.034 395.71 901.76 377.242 901.851C364.947 901.851 347.891 902.217 339.415 902.675C330.94 903.132 310.431 904.139 293.898 904.962C277.365 905.694 262.036 906.701 259.891 907.067C253.037 908.256 305.67 909.08 329.736 908.165C363.063 906.884 376.509 906.975 383.729 908.622C387.13 909.446 390.583 910.452 391.472 911.001C394.716 912.923 397.018 916.766 401.151 927.38C403.401 933.327 406.488 940.007 407.953 942.294C410.987 947.052 415.016 950.072 419.097 950.621C420.562 950.804 421.242 950.804 420.509 950.529C411.772 947.967 407.796 942.477 402.198 925.55C398.012 912.923 394.036 907.433 387.915 905.877C383.258 904.596 385.822 904.413 392.309 905.42C407.273 907.799 410.987 911.367 417.422 929.759C423.073 945.863 430.24 953.183 440.129 952.908L443.791 952.725L440.6 951.993Z" fill="white"/>
<path d="M460.27 948.425C465.973 946.229 476.907 939.732 476.384 938.817C476.28 938.543 474.135 939.549 471.728 941.013C463.252 945.954 457.863 947.784 451.114 947.876C444.156 947.876 440.284 946.503 434.791 942.111C431.024 939 427.1 933.052 425.687 928.111C424.223 923.079 424.327 916.308 426.001 912.922C428.042 908.713 429.821 907.89 435.576 908.439C441.854 908.988 445.83 911.092 455.195 918.87C461.892 924.451 462.467 924.726 463.932 923.719C464.822 923.079 465.502 922.255 465.502 921.889C465.502 921.157 457.183 914.203 451.219 909.903C442.482 903.589 432.541 901.393 428.094 904.779C418.311 912.373 420.769 933.418 432.75 944.033C439.866 950.346 450.696 952.085 460.27 948.425Z" fill="white"/>
<path d="M511.021 946.32C513.951 945.131 517.822 941.654 517.822 940.098C517.822 938.817 515.416 939.092 512.538 940.739C510.445 941.928 508.614 942.203 503.539 941.745C495.796 941.196 488.367 937.994 478.322 930.948C472.514 926.922 471.311 926.373 469.794 927.014C468.852 927.471 468.015 928.203 467.963 928.569C467.806 929.576 474.869 934.883 482.036 939.275C492.866 945.771 504.9 948.791 511.021 946.32Z" fill="white"/>
<path d="M446.355 936.255C447.139 934.883 447.715 932.778 447.715 931.497C447.715 929.21 446.407 923.72 445.831 923.72C445.727 923.72 445.936 924.909 446.407 926.465C446.825 927.929 447.192 930.125 447.192 931.406C447.192 934.334 444.942 937.445 442.797 937.445C440.338 937.445 435.943 933.236 433.85 928.935C430.607 922.347 430.973 916.125 434.74 913.838C436.414 912.831 436.414 912.74 433.955 913.106C423.701 914.478 430.711 936.896 441.803 938.177C444.733 938.543 445.151 938.36 446.355 936.255Z" fill="white"/>
<path d="M520.49 934.425C526.454 928.844 527.553 910.452 523.629 883.094C522.216 873.486 518.292 854.82 516.2 847.775L515.258 844.572L514.578 847.775C513.793 851.526 513.688 850.52 516.252 861.5C520.908 881.63 523.053 897.642 523.053 911.733C523.053 921.524 522.321 926.099 520.333 929.393C519.025 931.497 518.292 931.955 516.043 931.955C514.473 931.955 512.642 931.314 511.543 930.308C509.503 928.386 506.521 921.432 505.893 916.949C505.37 913.472 503.695 912.465 503.695 915.668C503.748 921.707 507.462 930.948 511.177 934.242C514.525 937.17 517.455 937.17 520.49 934.425Z" fill="white"/>
<path d="M459.382 931.406C462.259 928.661 473.194 921.707 480.047 918.138C494.33 910.91 504.009 909.08 509.607 912.74C513.531 915.302 517.298 922.439 517.298 927.38C517.298 929.576 518.24 929.484 519.025 927.197C520.49 923.171 516.514 914.478 511.386 910.361C508.509 908.073 507.619 907.799 502.911 907.799C496.475 907.89 488.575 910.91 477.745 917.406C470.996 921.341 457.132 931.589 457.132 932.504C457.132 933.144 457.917 932.778 459.382 931.406Z" fill="white"/>
<path d="M445.621 922.438C445.621 922.255 445.203 921.523 444.679 920.883C443.895 919.693 443.842 919.785 444.522 921.249C445.203 922.713 445.621 923.17 445.621 922.438Z" fill="white"/>
<path d="M441.07 916.308C440.704 915.668 440.285 915.393 440.128 915.668C439.971 915.942 440.233 916.491 440.756 916.766C441.489 917.315 441.541 917.223 441.07 916.308Z" fill="white"/>
<path d="M437.879 913.929C437.513 913.655 437.042 913.746 436.885 914.021C436.675 914.295 436.989 914.57 437.565 914.478C438.14 914.478 438.297 914.204 437.879 913.929Z" fill="white"/>
<path d="M505.266 900.479C505.266 888.767 511.91 848.232 516.357 832.86C516.933 830.847 517.247 829.109 517.142 828.926C516.828 828.377 513.428 841.644 510.707 853.814C507.411 868.911 504.429 887.669 503.435 900.204C503.121 904.139 503.225 904.505 504.167 904.505C505.109 904.505 505.266 903.956 505.266 900.479Z" fill="white"/>
<path d="M500.871 898.375V893.617L498.307 892.61C496.895 892.153 495.273 891.238 494.697 890.689C493.233 889.316 493.128 889.865 493.965 894.532C494.384 896.728 494.854 899.656 495.011 900.937C495.273 903.133 495.482 903.316 498.046 903.224H500.819L500.871 898.375Z" fill="white"/>
<path d="M522.06 858.206C523.943 849.788 526.298 836.429 526.978 830.115C527.972 820.782 527.972 805.044 526.925 797.45C525.984 790.313 523.211 779.973 521.013 775.398C516.305 765.516 508.98 762.588 504.742 768.81C501.76 773.111 500.818 777.594 500.871 787.385C500.923 800.103 502.859 811.083 509.085 833.958L511.491 842.651L512.328 839.448L513.166 836.337L510.079 824.9C506.312 810.992 504.481 801.659 503.748 792.692C502.597 777.869 505.004 770 510.707 770C515.572 770 519.653 776.039 522.844 787.842C525.513 797.541 526.35 804.678 526.298 816.207C526.245 827.736 525.303 836.886 522.74 850.428C521.746 855.644 521.066 860.127 521.223 860.402C521.327 860.676 521.746 859.67 522.06 858.206Z" fill="white"/>
<path d="M518.762 809.619C519.128 809.345 519.756 807.972 520.175 806.6C522.529 798.731 518.971 783.908 513.583 779.15C510.967 776.771 509.816 776.862 508.142 779.424C507.043 781.071 506.677 782.535 506.52 786.012C506.363 790.496 506.363 790.496 506.938 787.568C507.252 785.829 508.089 783.816 508.769 783.084C512.432 778.875 519.442 789.764 520.279 801.018C520.593 805.319 519.024 809.07 516.617 809.619L514.943 809.985L516.512 810.077C517.35 810.077 518.396 809.894 518.762 809.619Z" fill="white"/>
<path d="M513.375 807.881C513.061 807.423 512.015 805.776 511.021 804.312L509.189 801.567L510.497 804.129C511.23 805.593 512.276 807.149 512.852 807.698C513.427 808.247 513.637 808.247 513.375 807.881Z" fill="white"/>
<path d="M529.279 796.992C529.331 790.221 528.39 782.352 526.716 775.764C525.198 769.817 521.065 762.771 515.415 756.732C508.98 749.687 505.631 743.465 504.271 735.87C503.12 729.282 502.283 719.766 501.917 708.695L501.655 700.917L502.387 706.682C503.957 718.485 506.154 723.152 514.002 731.204C522.53 739.988 525.931 747.033 527.553 759.294L528.285 764.967L528.076 760.392C527.71 753.347 525.878 745.935 523.158 740.628C521.798 737.975 518.031 732.759 514.787 729.008C508.77 722.145 506.364 717.845 505.317 712.08C505.003 710.433 504.428 704.394 504.009 698.63C503.329 689.662 503.277 672.735 503.538 585.627C503.695 521.302 503.643 481.957 503.329 479.944C502.963 477.565 502.754 483.421 502.44 502.362C502.23 516.453 501.864 540.7 501.603 556.347C501.289 571.993 500.87 598.071 500.556 614.449C500.295 630.828 500.033 663.127 500.033 686.368C500.033 725.439 500.085 729.008 501.079 735.687C502.806 747.582 505.893 753.347 515.205 762.131C523.786 770.274 527.448 779.973 528.756 797.816L529.175 803.397L529.279 796.992Z" fill="white"/>
</g>
<g clip-path="url(#clip1_512_342)">
<path d="M1.90144 793.691C2.46222 785.425 3.27791 780.447 5.01124 774.435C7.05045 767.296 9.95632 762.318 15.1053 757.151C24.7406 747.383 27.4935 741.559 29.0739 727.375C29.7367 721.363 29.8896 713.097 29.8386 679.939C29.8386 657.865 29.6347 627.243 29.3798 612.026C29.1249 596.809 28.5641 559.988 28.1053 530.305C27.6975 500.623 27.1367 473.101 26.9327 469.25C26.27 456.945 25.8112 551.44 26.321 594.649C27.0347 654.484 26.9837 678.624 26.0661 691.587C25.6073 697.692 25.0465 703.892 24.7406 705.489C23.67 711.313 21.5288 715.446 15.6151 722.866C12.3014 726.905 8.57986 732.447 7.30535 735.077C4.65438 740.525 2.97203 747.758 2.66615 755.085C2.56418 757.715 2.56418 758.936 2.71713 757.621C4.14457 741.934 7.20339 734.796 16.6347 724.745C23.67 717.23 26.7288 710.091 27.5955 699.101C28.3092 690.741 28.4112 695.344 27.8504 706.992C26.5249 733.856 24.5367 740.525 14.2896 752.079C5.31712 762.224 1.2387 775.092 1.39164 792.846L1.4936 799.421L1.90144 793.691Z" fill="white"/>
<path d="M3.88993 829.01C5.11346 839.249 8.73306 858.88 9.24286 857.941C9.3958 857.753 8.83502 853.902 8.01933 849.581C5.2664 834.364 4.24679 824.689 4.19581 812.572C4.19581 800.079 4.96052 793.128 7.40757 783.265C9.1409 776.502 12.4546 769.457 15.2075 766.921C18.0115 764.291 21.784 764.479 23.6703 767.485C26.0154 771.148 26.4742 774.342 26.1683 784.674C25.8624 795.946 24.6899 803.085 20.3566 819.899C17.2468 831.922 17.0938 832.955 17.6546 835.585C18.0115 837.182 18.4703 838.403 18.6742 838.403C19.082 838.403 22.9565 823.468 25.3526 812.76C28.8703 797.073 30.0938 779.226 28.2075 771.242C23.9762 753.677 12.2507 758.091 6.33698 779.602C2.81934 792.377 1.85072 811.82 3.88993 829.01Z" fill="white"/>
<path d="M5.06079 920.124C5.72353 925.384 7.66078 932.335 8.52745 932.335C9.24117 932.335 9.08823 928.014 8.17058 922.848C7.50784 919.091 7.3549 915.803 7.6098 906.692C7.91568 892.79 9.69999 879.451 13.6255 861.416C15.8686 850.99 16.1745 848.829 15.8176 846.105C15.5627 844.415 15.1549 842.912 14.951 842.818C14.3902 842.536 11.4333 855.217 8.98627 868.085C5.36667 887.529 3.68432 909.134 5.06079 920.124Z" fill="white"/>
<path d="M10.6701 804.024C11.4349 805.433 12.6074 806.466 13.3211 806.466C14.5956 806.466 17.6544 804.118 17.6544 803.084C17.6544 802.896 16.9917 803.272 16.125 804.118C15.3093 804.869 14.0858 805.526 13.3721 805.526C11.7407 805.526 10.0074 801.487 10.0074 797.636C10.0074 793.221 12.3525 785.331 14.7486 781.574C18.4191 775.75 21.8858 776.408 23.1603 783.171C23.7211 786.176 23.7721 786.176 23.5682 781.762C22.8034 763.351 10.3133 775.938 9.59956 795.851C9.39564 801.112 9.4976 801.863 10.6701 804.024Z" fill="white"/>
<path d="M11.6893 937.125C14.7991 947.834 25.0462 949.806 40.2893 942.761C45.6422 940.225 56.0422 933.18 59.9676 929.423L61.752 927.732L59.9676 926.511C57.8775 925.102 58.4382 924.914 52.3206 929.517C41.1049 937.877 32.1834 941.728 24.3324 941.728C18.8776 941.728 16.3285 940.413 14.4933 936.844C13.3207 934.495 13.0658 933.18 13.0658 929.141C13.0658 926.323 13.4227 923.036 13.9835 921.063C15.054 917.4 18.9285 912.046 21.4266 910.918C23.3638 909.979 23.9246 906.973 22.1403 906.973C18.7756 907.067 13.6266 913.736 11.7913 920.406C10.1599 926.417 10.1599 931.677 11.6893 937.125Z" fill="white"/>
<path d="M13.3705 827.413C14.8999 832.579 18.7744 852.211 20.7627 864.516C24.7901 890.159 25.8097 907.537 23.7705 917.588C22.3431 924.632 18.3666 931.396 15.6137 931.396C14.3901 931.396 14.4411 933.086 15.7156 934.495C17.9588 937.125 22.8019 929.987 25.096 920.781C26.3705 915.615 26.5234 914.018 26.5234 905.564C26.4725 894.011 24.7901 879.827 21.1705 860.383C18.9784 848.266 13.2686 823.374 12.7588 823.374C12.4019 823.374 12.6058 824.783 13.3705 827.413Z" fill="white"/>
<path d="M18.3682 802.709C18.4701 802.709 18.878 801.958 19.2348 801.018C19.8976 799.609 19.8466 799.515 19.0309 800.736C18.2152 801.958 17.9603 802.709 18.3682 802.709Z" fill="white"/>
<path d="M21.7833 794.537C22.1402 793.879 22.2931 793.128 22.1402 792.846C21.9872 792.564 21.6813 793.034 21.5284 793.973C21.2225 795.288 21.2735 795.382 21.7833 794.537Z" fill="white"/>
<path d="M23.1088 788.807C23.2618 788.149 23.2108 787.304 23.0578 787.022C22.9049 786.646 22.752 787.21 22.8029 788.243C22.8029 789.277 22.9559 789.558 23.1088 788.807Z" fill="white"/>
<path d="M30.6028 909.791C37.1282 909.791 59.7125 921.72 68.2772 929.705C69.3987 930.738 70.3674 931.301 70.4693 931.114C70.7752 930.55 63.3831 924.444 56.6027 919.56C48.191 913.642 37.74 908.288 30.7557 906.503C28.5636 905.94 28.3596 906.128 28.3596 907.818C28.3596 909.509 28.6655 909.791 30.6028 909.791Z" fill="white"/>
<path d="M31.7753 901.901H34.4262L34.987 897.299C35.2419 894.763 35.7517 891.851 36.0576 890.817C36.8223 888.187 36.5164 887.999 33.9164 889.502C32.6929 890.254 31.0615 891.099 30.3478 891.381C29.1243 891.851 29.0223 892.226 29.0733 896.829V901.807L31.7753 901.901Z" fill="white"/>
<path d="M54.1562 939.943C58.8464 943.325 66.2895 947.551 69.8071 948.773C75.0071 950.557 83.7757 950.557 88.0071 948.679C91.9835 946.988 97.7443 942.009 100.293 938.064C105.799 929.61 107.431 916.46 103.964 908.851C101.568 903.497 99.0698 901.807 93.6149 901.9C86.5287 901.994 80.411 905.47 67.666 916.648L62.8228 920.969L64.6072 922.472L66.3405 923.975L72.713 918.433C80.462 911.669 85.662 908.382 90.6581 907.067C98.9169 905 103.301 909.321 103.301 919.56C103.301 928.295 99.9365 935.622 93.36 941.352C87.9561 946.142 83.9797 947.645 77.5561 947.551C71.1326 947.458 66.0346 945.767 58.4895 941.164C55.5836 939.379 53.0856 938.158 52.9327 938.44C52.7797 938.628 53.3405 939.379 54.1562 939.943Z" fill="white"/>
<path d="M81.2264 934.025C81.3794 934.683 82.1441 935.81 82.9088 936.561C87.2931 940.788 95.5519 934.401 98.2029 924.726C99.5283 920.029 99.4774 917.963 98.0499 914.957C97.1323 912.984 96.3166 912.327 94.3793 912.045C91.8813 911.763 91.8813 911.763 93.5127 912.797C94.4813 913.36 95.6029 914.863 96.0107 916.084C98.3558 922.659 92.2892 935.246 86.0186 936.749C83.6225 937.313 81.5323 934.495 81.2264 930.174L81.0225 927.168L80.9715 929.986C80.9715 931.489 81.0735 933.368 81.2264 934.025Z" fill="white"/>
<path d="M82.1953 924.351C82.4502 923.787 83.3678 921.909 84.1835 920.124L85.7129 916.836L84.2854 919.185C83.4698 920.5 82.6031 922.378 82.2972 923.412C81.9913 924.445 81.9913 924.821 82.1953 924.351Z" fill="white"/>
<path d="M88.2614 952.905C92.0339 952.999 96.4182 951.309 100.089 948.303C103.403 945.579 107.328 938.158 110.693 928.013C114.618 916.46 118.085 910.448 122.316 908.006C125.987 905.939 131.289 904.437 137.457 903.779L141.791 903.309L138.579 904.624C132.002 907.442 129.402 911.387 124.916 925.477C120.022 940.788 116.097 946.894 109.265 949.806L106.104 951.121L108.653 950.745C112.579 950.088 116.708 946.8 119.665 941.915C121.144 939.473 124.05 932.71 126.14 926.886C129.963 916.084 132.359 911.763 135.571 909.885C136.489 909.321 139.853 908.288 143.065 907.536C148.061 906.315 157.493 906.221 206.026 906.691C241.865 906.973 263.786 906.879 264.908 906.315C266.233 905.658 262.971 905.282 252.418 904.718C244.567 904.343 231.057 903.685 222.339 903.215C213.622 902.652 199.092 901.9 189.967 901.337C180.842 900.867 162.846 900.397 149.897 900.397C128.128 900.397 126.14 900.491 122.418 902.276C115.791 905.376 112.579 910.918 107.685 927.638C103.148 943.043 97.7437 949.618 87.8026 951.966L84.6928 952.718L88.2614 952.905Z" fill="white"/>
</g>
<g clip-path="url(#clip2_512_342)">
<path d="M529.439 159.309C528.877 167.575 528.059 172.553 526.321 178.565C524.277 185.704 521.365 190.682 516.203 195.849C506.545 205.617 503.786 211.441 502.201 225.625C501.537 231.637 501.384 239.903 501.435 273.061C501.435 295.135 501.639 325.757 501.895 340.974C502.15 356.191 502.712 393.012 503.172 422.694C503.581 452.377 504.143 479.899 504.348 483.75C505.012 496.055 505.472 401.56 504.961 358.351C504.245 298.516 504.297 274.376 505.216 261.413C505.676 255.308 506.238 249.108 506.545 247.511C507.618 241.687 509.764 237.554 515.692 230.134C519.014 226.095 522.744 220.553 524.022 217.923C526.679 212.475 528.366 205.242 528.672 197.915C528.774 195.285 528.774 194.064 528.621 195.379C527.19 211.066 524.124 218.204 514.67 228.255C507.618 235.77 504.552 242.908 503.683 253.899C502.968 262.258 502.866 257.656 503.428 246.008C504.756 219.144 506.749 212.475 517.021 200.921C526.015 190.776 530.103 177.908 529.95 160.154L529.848 153.579L529.439 159.309Z" fill="white"/>
<path d="M527.446 123.99C526.219 113.751 522.591 94.1196 522.08 95.0589C521.927 95.2468 522.489 99.098 523.306 103.419C526.066 118.636 527.088 128.311 527.139 140.428C527.139 152.921 526.372 159.872 523.92 169.735C522.182 176.498 518.86 183.543 516.101 186.079C513.29 188.709 509.509 188.521 507.618 185.515C505.267 181.852 504.807 178.658 505.114 168.326C505.421 157.054 506.596 149.915 510.94 133.101C514.057 121.078 514.21 120.045 513.648 117.415C513.29 115.818 512.83 114.597 512.626 114.597C512.217 114.597 508.333 129.532 505.932 140.24C502.406 155.927 501.179 173.774 503.07 181.758C507.311 199.323 519.065 194.909 524.993 173.398C528.519 160.623 529.49 141.18 527.446 123.99Z" fill="white"/>
<path d="M526.27 32.8762C525.606 27.616 523.664 20.665 522.795 20.665C522.08 20.665 522.233 24.9859 523.153 30.1522C523.817 33.9095 523.97 37.1971 523.715 46.3085C523.408 60.2104 521.62 73.5488 517.685 91.5837C515.436 102.01 515.13 104.171 515.487 106.895C515.743 108.585 516.152 110.088 516.356 110.182C516.918 110.464 519.882 97.7833 522.335 84.9146C525.963 65.4706 527.65 43.8663 526.27 32.8762Z" fill="white"/>
<path d="M520.648 148.976C519.881 147.567 518.706 146.534 517.991 146.534C516.713 146.534 513.647 148.882 513.647 149.916C513.647 150.104 514.311 149.728 515.18 148.882C515.998 148.131 517.224 147.474 517.94 147.474C519.575 147.474 521.312 151.513 521.312 155.364C521.312 159.779 518.962 167.669 516.56 171.426C512.881 177.25 509.406 176.592 508.128 169.829C507.566 166.824 507.515 166.824 507.719 171.238C508.486 189.649 521.006 177.062 521.721 157.149C521.926 151.888 521.823 151.137 520.648 148.976Z" fill="white"/>
<path d="M519.627 15.8745C516.51 5.16624 506.239 3.19367 490.959 10.2386C485.594 12.7747 475.169 19.8196 471.234 23.5769L469.445 25.2677L471.234 26.4888C473.329 27.8978 472.767 28.0857 478.899 23.483C490.142 15.123 499.084 11.2718 506.954 11.2718C512.422 11.2718 514.977 12.5869 516.817 16.1563C517.992 18.5046 518.248 19.8196 518.248 23.8587C518.248 26.6767 517.89 29.9643 517.328 31.9369C516.255 35.6002 512.371 40.9544 509.867 42.0816C507.925 43.0209 507.363 46.0267 509.152 46.0267C512.524 45.9328 517.686 39.2636 519.525 32.5944C521.16 26.5828 521.16 21.3226 519.627 15.8745Z" fill="white"/>
<path d="M517.94 125.587C516.407 120.421 512.523 100.789 510.53 88.4841C506.493 62.8406 505.471 45.4632 507.515 35.4124C508.946 28.3675 512.932 21.6044 515.692 21.6044C516.918 21.6044 516.867 19.9137 515.589 18.5047C513.341 15.8746 508.486 23.0134 506.187 32.2188C504.909 37.385 504.756 38.9819 504.756 47.4357C504.807 58.9894 506.493 73.1731 510.122 92.6171C512.319 104.734 518.042 129.626 518.553 129.626C518.911 129.626 518.707 128.217 517.94 125.587Z" fill="white"/>
<path d="M512.932 150.291C512.83 150.291 512.421 151.042 512.063 151.982C511.399 153.391 511.45 153.485 512.268 152.264C513.085 151.042 513.341 150.291 512.932 150.291Z" fill="white"/>
<path d="M509.509 158.463C509.151 159.121 508.998 159.872 509.151 160.154C509.304 160.436 509.611 159.966 509.764 159.027C510.071 157.712 510.02 157.618 509.509 158.463Z" fill="white"/>
<path d="M508.18 164.193C508.027 164.851 508.078 165.696 508.232 165.978C508.385 166.354 508.538 165.79 508.487 164.757C508.487 163.723 508.334 163.442 508.18 164.193Z" fill="white"/>
<path d="M500.668 43.209C494.127 43.209 471.489 31.2796 462.904 23.2954C461.78 22.2621 460.809 21.6985 460.706 21.8864C460.4 22.45 467.81 28.5556 474.606 33.44C483.038 39.3578 493.514 44.7119 500.515 46.4966C502.712 47.0602 502.917 46.8723 502.917 45.1815C502.917 43.4908 502.61 43.209 500.668 43.209Z" fill="white"/>
<path d="M499.494 51.0986H496.836L496.274 55.7013C496.019 58.2375 495.508 61.1494 495.201 62.1826C494.435 64.8127 494.741 65.0006 497.347 63.4977C498.574 62.7462 500.209 61.9008 500.924 61.619C502.151 61.1494 502.253 60.7736 502.202 56.171V51.1926L499.494 51.0986Z" fill="white"/>
<path d="M477.059 13.056C472.357 9.67449 464.897 5.44755 461.371 4.22643C456.158 2.44172 447.369 2.44172 443.127 4.32036C439.141 6.01114 433.367 10.9895 430.812 14.9347C425.293 23.3886 423.657 36.5391 427.132 44.1476C429.534 49.5017 432.038 51.1925 437.506 51.0985C444.609 51.0046 450.741 47.5291 463.517 36.3512L468.371 32.0303L466.583 30.5274L464.845 29.0245L458.458 34.5665C450.69 41.3296 445.478 44.6172 440.47 45.9323C432.191 47.9988 427.797 43.6779 427.797 33.4393C427.797 24.7036 431.169 17.3769 437.761 11.6471C443.178 6.85653 447.164 5.35362 453.603 5.44755C460.042 5.54148 465.152 7.23226 472.715 11.8349C475.628 13.6196 478.132 14.8408 478.285 14.559C478.439 14.3711 477.876 13.6196 477.059 13.056Z" fill="white"/>
<path d="M449.924 18.9738C449.77 18.3162 449.004 17.1891 448.237 16.4376C443.843 12.2107 435.564 18.598 432.907 28.273C431.578 32.9696 431.629 35.0362 433.06 38.042C433.98 40.0146 434.798 40.6721 436.739 40.9539C439.243 41.2357 439.243 41.2357 437.608 40.2024C436.637 39.6388 435.513 38.1359 435.104 36.9148C432.754 30.3395 438.835 17.7527 445.12 16.2497C447.522 15.6861 449.617 18.5041 449.924 22.825L450.128 25.8308L450.179 23.0128C450.179 21.5099 450.077 19.6313 449.924 18.9738Z" fill="white"/>
<path d="M448.954 28.6491C448.698 29.2127 447.778 31.0914 446.961 32.8761L445.428 36.1637L446.859 33.8154C447.676 32.5004 448.545 30.6217 448.852 29.5885C449.158 28.5552 449.158 28.1795 448.954 28.6491Z" fill="white"/>
<path d="M442.872 0.0945368C439.09 0.000604697 434.696 1.69138 431.016 4.69721C427.695 7.42124 423.76 14.8419 420.387 24.9865C416.452 36.5402 412.977 42.5518 408.736 44.9941C405.056 47.0606 399.742 48.5635 393.558 49.221L389.215 49.6907L392.434 48.3756C399.026 45.5577 401.633 41.6125 406.13 27.5227C411.035 12.2118 414.97 6.10619 421.818 3.19429L424.986 1.87925L422.431 2.25497C418.496 2.9125 414.357 6.20012 411.393 11.0846C409.911 13.5268 406.998 20.2899 404.903 26.1137C401.07 36.9159 398.669 41.2368 395.449 43.1154C394.529 43.679 391.157 44.7123 387.937 45.4637C382.929 46.6848 373.475 46.7788 324.826 46.3091C288.902 46.0273 266.928 46.1212 265.804 46.6848C264.475 47.3424 267.746 47.7181 278.324 48.2817C286.193 48.6574 299.735 49.3149 308.474 49.7846C317.212 50.3482 331.776 51.0996 340.923 51.6632C350.071 52.1329 368.11 52.6026 381.09 52.6026C402.91 52.6026 404.903 52.5086 408.634 50.7239C415.277 47.6242 418.496 42.0822 423.402 25.3623C427.95 9.9574 433.367 3.38216 443.332 1.03386L446.449 0.282401L442.872 0.0945368Z" fill="white"/>
</g>
<path d="M88.9391 1.00672C93.5538 2.01322 96.3332 3.47723 99.6894 6.58823C103.675 10.2482 106.454 15.4638 109.338 24.7053C114.792 41.9988 118.043 46.9398 125.962 49.7763C129.318 50.9658 133.933 51.2403 152.444 51.1488C164.768 51.1488 181.863 50.7828 190.359 50.3253C198.854 49.8678 219.411 48.8613 235.982 48.0378C252.553 47.3058 267.918 46.2993 270.068 45.9333C276.938 44.7438 224.183 43.9203 200.06 44.8353C166.656 46.1163 153.178 46.0248 145.942 44.3778C142.533 43.5543 139.072 42.5478 138.181 41.9988C134.929 40.0773 132.622 36.2343 128.479 25.6203C126.224 19.6728 123.13 12.9932 121.662 10.7057C118.62 5.94773 114.582 2.92822 110.492 2.37922C109.024 2.19622 108.342 2.19622 109.076 2.47072C117.834 5.03273 121.819 10.5227 127.43 27.4503C131.626 40.0773 135.611 45.5673 141.746 47.1228C146.414 48.4038 143.844 48.5868 137.342 47.5803C122.344 45.2013 118.62 41.6328 112.17 23.2413C106.507 7.13723 99.3223 -0.182783 89.4111 0.0917179L85.7402 0.274718L88.9391 1.00672Z" fill="white"/>
<path d="M69.2225 4.57547C63.5065 6.77148 52.5465 13.268 53.0709 14.183C53.1758 14.4575 55.3258 13.451 57.7381 11.987C66.2334 7.04598 71.6348 5.21598 78.3996 5.12448C85.3741 5.12448 89.2547 6.49698 94.7609 10.889C98.5366 14 102.47 19.9475 103.886 24.8885C105.354 29.921 105.249 36.692 103.571 40.0776C101.526 44.2866 99.7428 45.1101 93.9743 44.5611C87.6815 44.0121 83.696 41.9076 74.3092 34.13C67.5969 28.5485 67.02 28.274 65.5517 29.2805C64.6602 29.921 63.9785 30.7445 63.9785 31.1105C63.9785 31.8425 72.3165 38.7965 78.2947 43.0971C87.0522 49.4106 97.0159 51.6066 101.473 48.2211C111.28 40.6266 108.815 19.5815 96.8061 8.96748C89.6742 2.65397 78.8191 0.915466 69.2225 4.57547Z" fill="white"/>
<path d="M18.3543 6.6797C15.4177 7.86921 11.5371 11.3462 11.5371 12.9017C11.5371 14.1827 13.9494 13.9082 16.8336 12.2612C18.9312 11.0717 20.7666 10.7972 25.8533 11.2547C33.6145 11.8037 41.061 15.0062 51.1295 22.0517C56.9504 26.0777 58.1565 26.6267 59.6773 25.9862C60.6212 25.5287 61.4603 24.7967 61.5127 24.4307C61.67 23.4242 54.5906 18.1172 47.4063 13.7252C36.5511 7.2287 24.4899 4.2092 18.3543 6.6797Z" fill="white"/>
<path d="M83.1701 16.7446C82.3835 18.1171 81.8066 20.2216 81.8066 21.5026C81.8066 23.7901 83.1176 29.2801 83.6945 29.2801C83.7994 29.2801 83.5896 28.0906 83.1176 26.5351C82.6981 25.0711 82.331 22.8751 82.331 21.5941C82.331 18.6661 84.586 15.5551 86.736 15.5551C89.2007 15.5551 93.6057 19.7641 95.7033 24.0646C98.9546 30.6526 98.5875 36.8746 94.8118 39.1621C93.1337 40.1686 93.1337 40.2601 95.5984 39.8941C105.877 38.5216 98.8497 16.1041 87.7324 14.8231C84.7957 14.4571 84.3762 14.6401 83.1701 16.7446Z" fill="white"/>
<path d="M8.86273 18.5746C2.88454 24.1561 1.78329 42.5476 5.71631 69.9062C7.1322 79.5137 11.0652 98.1797 13.1628 105.225L14.1068 108.428L14.7885 105.225C15.5751 101.474 15.68 102.48 13.1104 91.5002C8.44321 71.3702 6.29316 55.3576 6.29316 41.2666C6.29316 31.4761 7.02732 26.9011 9.02005 23.6071C10.3311 21.5026 11.0652 21.0451 13.3202 21.0451C14.8934 21.0451 16.7288 21.6856 17.83 22.6921C19.8752 24.6136 22.8643 31.5676 23.4936 36.0511C24.018 39.5281 25.6961 40.5346 25.6961 37.3321C25.6436 31.2931 21.9204 22.0516 18.1971 18.7576C14.8409 15.8295 11.9043 15.8295 8.86273 18.5746Z" fill="white"/>
<path d="M70.1133 21.5941C67.2291 24.3391 56.2691 31.2931 49.3994 34.8617C35.0832 42.0902 25.3817 43.9202 19.7706 40.2602C15.8376 37.6982 12.0619 30.5611 12.0619 25.6201C12.0619 23.4241 11.118 23.5156 10.3314 25.8031C8.86302 29.8291 12.8485 38.5217 17.9876 42.6392C20.8719 44.9267 21.7633 45.2012 26.483 45.2012C32.9331 45.1097 40.8516 42.0902 51.7068 35.5937C58.4716 31.6591 72.3682 21.4111 72.3682 20.4961C72.3682 19.8556 71.5816 20.2216 70.1133 21.5941Z" fill="white"/>
<path d="M83.9043 30.5616C83.9043 30.7446 84.3238 31.4766 84.8482 32.1171C85.6348 33.3066 85.6873 33.2151 85.0055 31.7511C84.3238 30.2871 83.9043 29.8296 83.9043 30.5616Z" fill="white"/>
<path d="M88.4676 36.692C88.8347 37.3325 89.2542 37.607 89.4116 37.3325C89.5689 37.058 89.3067 36.509 88.7823 36.2345C88.0481 35.6855 87.9957 35.777 88.4676 36.692Z" fill="white"/>
<path d="M91.6667 39.0706C92.0338 39.3451 92.5058 39.2536 92.6631 38.9791C92.8728 38.7046 92.5582 38.4301 91.9814 38.5216C91.4045 38.5216 91.2472 38.7961 91.6667 39.0706Z" fill="white"/>
<path d="M24.1232 52.5212C24.1232 64.2332 17.4632 104.768 13.0058 120.14C12.429 122.153 12.1143 123.891 12.2192 124.074C12.5338 124.623 15.9425 111.356 18.6694 99.1863C21.9731 84.0888 24.9622 65.3312 25.9586 52.7957C26.2732 48.8612 26.1683 48.4952 25.2244 48.4952C24.2805 48.4952 24.1232 49.0442 24.1232 52.5212Z" fill="white"/>
<path d="M28.5273 54.6254V59.3834L31.0969 60.39C32.5128 60.8475 34.1385 61.7625 34.7153 62.3115C36.1836 63.684 36.2885 63.135 35.4495 58.4684C35.0299 56.2724 34.558 53.3444 34.4007 52.0634C34.1385 49.8674 33.9287 49.6844 31.3591 49.7759H28.5798L28.5273 54.6254Z" fill="white"/>
<path d="M7.28938 94.7941C5.40152 103.212 3.04171 116.571 2.35999 122.885C1.36362 132.218 1.36362 147.956 2.41243 155.55C3.35635 162.687 6.13569 173.027 8.33818 177.602C13.0578 187.484 20.3995 190.412 24.6471 184.19C27.6362 179.889 28.5801 175.406 28.5277 165.615C28.4753 152.897 26.535 141.917 20.2946 119.042L17.8823 110.349L17.0433 113.552L16.2042 116.663L19.2982 128.1C23.0739 142.008 24.9093 151.341 25.6435 160.308C26.7972 175.131 24.3849 183 18.6689 183C13.792 183 9.70163 176.961 6.50277 165.158C3.82831 155.459 2.98927 148.322 3.04171 136.793C3.09415 125.264 4.03808 116.114 6.60765 102.572C7.60402 97.3561 8.28574 92.8726 8.12842 92.5981C8.02354 92.3236 7.60402 93.3301 7.28938 94.7941Z" fill="white"/>
<path d="M10.5924 143.381C10.2253 143.655 9.59605 145.028 9.17652 146.4C6.81671 154.269 10.3827 169.092 15.784 173.85C18.406 176.229 19.5597 176.138 21.2378 173.576C22.339 171.929 22.7061 170.465 22.8634 166.988C23.0208 162.504 23.0208 162.504 22.4439 165.432C22.1293 167.171 21.2902 169.184 20.6085 169.916C16.9377 174.125 9.91069 163.236 9.07164 151.982C8.757 147.681 10.3302 143.93 12.7425 143.381L14.4206 143.015L12.8473 142.923C12.0083 142.923 10.9595 143.106 10.5924 143.381Z" fill="white"/>
<path d="M15.9944 145.119C16.3091 145.577 17.3579 147.224 18.3542 148.688L20.1896 151.433L18.8786 148.871C18.1445 147.407 17.0957 145.851 16.5188 145.302C15.942 144.753 15.7322 144.753 15.9944 145.119Z" fill="white"/>
<path d="M0.0528561 156.008C0.000415764 162.779 0.944341 170.648 2.62243 177.236C4.1432 183.183 8.28598 190.229 13.9495 196.268C20.3997 203.313 23.7559 209.535 25.1193 217.13C26.273 223.718 27.1121 233.234 27.4791 244.305L27.7413 252.083L27.0072 246.318C25.434 234.515 23.2315 229.848 15.3654 221.796C6.81765 213.012 3.40904 205.967 1.78339 193.706L1.04922 188.033L1.25898 192.608C1.62607 199.653 3.46148 207.065 6.18837 212.372C7.55182 215.025 11.3275 220.241 14.5788 223.992C20.6095 230.855 23.0217 235.155 24.0705 240.92C24.3852 242.567 24.962 248.606 25.3815 254.37C26.0632 263.338 26.1157 280.265 25.8535 367.373C25.6962 431.698 25.7486 471.043 26.0632 473.056C26.4303 475.435 26.6401 469.579 26.9547 450.638C27.1645 436.547 27.5316 412.3 27.7938 396.653C28.1084 381.007 28.5279 354.929 28.8426 338.551C29.1048 322.172 29.367 289.873 29.367 266.632C29.367 227.561 29.3145 223.992 28.3182 217.313C26.5876 205.418 23.4937 199.653 14.1593 190.869C5.55909 182.726 1.88827 173.027 0.577259 155.184L0.157737 149.603L0.0528561 156.008Z" fill="white"/>
<defs>
<clipPath id="clip0_512_342">
<rect width="287.753" height="503.251" fill="white" transform="matrix(-1 0 0 -1 529.332 953)"/>
</clipPath>
<clipPath id="clip1_512_342">
<rect width="516.626" height="280.391" fill="white" transform="matrix(0 -1 1 0 1.33984 953)"/>
</clipPath>
<clipPath id="clip2_512_342">
<rect width="516.626" height="281.061" fill="white" transform="matrix(0 1 -1 0 530 0)"/>
</clipPath>
</defs>
</svg>
