<svg width="320" height="320" viewBox="0 0 320 320" fill="none" xmlns="http://www.w3.org/2000/svg">
<path d="M318.887 105.269C318.207 110.709 317.218 113.986 315.116 117.942C312.644 122.64 309.12 125.917 302.876 129.317C291.193 135.746 287.855 139.579 285.938 148.913C285.135 152.869 284.949 158.309 285.011 180.131C285.011 194.659 285.258 214.811 285.567 224.826C285.876 234.84 286.556 259.073 287.113 278.608C287.607 298.142 288.287 316.255 288.535 318.789C289.338 326.888 289.895 264.699 289.276 236.262C288.411 196.884 288.473 180.997 289.585 172.466C290.142 168.448 290.822 164.368 291.193 163.317C292.491 159.484 295.087 156.764 302.258 151.88C306.276 149.222 310.789 145.575 312.335 143.844C315.549 140.259 317.589 135.499 317.96 130.677C318.084 128.946 318.084 128.142 317.898 129.008C316.167 139.331 312.458 144.029 301.022 150.644C292.491 155.589 288.782 160.288 287.731 167.52C286.865 173.022 286.742 169.993 287.422 162.328C289.029 144.648 291.44 140.259 303.866 132.655C314.746 125.979 319.691 117.509 319.506 105.826L319.382 101.499L318.887 105.269Z" fill="white"/>
<path d="M316.477 82.0258C314.993 75.2876 310.604 62.3676 309.986 62.9858C309.801 63.1094 310.481 65.6439 311.47 68.4876C314.808 78.5021 316.044 84.8694 316.106 92.8439C316.106 101.066 315.179 105.64 312.212 112.131C310.11 116.582 306.092 121.218 302.753 122.888C299.353 124.618 294.779 124.495 292.492 122.517C289.648 120.106 289.092 118.004 289.463 111.204C289.833 103.786 291.255 99.0876 296.51 88.0221C300.281 80.1094 300.466 79.4294 299.786 77.6985C299.353 76.6476 298.797 75.8439 298.55 75.8439C298.055 75.8439 293.357 85.673 290.452 92.7203C286.186 103.044 284.703 114.789 286.99 120.044C292.121 131.604 306.339 128.698 313.51 114.542C317.775 106.135 318.95 93.3385 316.477 82.0258Z" fill="white"/>
<path d="M315.055 22.0622C314.252 18.6004 311.903 14.0259 310.852 14.0259C309.986 14.0259 310.172 16.8695 311.285 20.2695C312.088 22.7422 312.274 24.9059 311.965 30.9022C311.594 40.0513 309.43 48.8295 304.67 60.6986C301.95 67.5604 301.579 68.9822 302.012 70.775C302.321 71.8877 302.815 72.8768 303.063 72.9386C303.743 73.1241 307.328 64.7786 310.295 56.3095C314.685 43.5132 316.725 29.295 315.055 22.0622Z" fill="white"/>
<path d="M308.255 98.4696C307.328 97.5423 305.906 96.8623 305.041 96.8623C303.495 96.8623 299.786 98.4078 299.786 99.0878C299.786 99.2114 300.59 98.9641 301.641 98.4078C302.63 97.9132 304.113 97.4805 304.979 97.4805C306.957 97.4805 309.059 100.139 309.059 102.673C309.059 105.579 306.215 110.771 303.31 113.244C298.859 117.077 294.655 116.644 293.11 112.193C292.43 110.215 292.368 110.215 292.615 113.12C293.543 125.237 308.688 116.953 309.553 103.848C309.801 100.386 309.677 99.8914 308.255 98.4696Z" fill="white"/>
<path d="M307.018 10.8734C303.247 3.82612 290.822 2.52794 272.338 7.1643C265.847 8.83339 253.236 13.4698 248.476 15.9425L246.312 17.0552L248.476 17.8588C251.011 18.7861 250.331 18.9098 257.749 15.8807C271.349 10.3788 282.167 7.8443 291.687 7.8443C298.302 7.8443 301.393 8.70975 303.618 11.0588C305.04 12.6043 305.349 13.4698 305.349 16.1279C305.349 17.9825 304.916 20.1461 304.236 21.4443C302.938 23.8552 298.24 27.3788 295.211 28.1207C292.862 28.7388 292.182 30.717 294.345 30.717C298.425 30.6552 304.669 26.2661 306.894 21.877C308.873 17.9207 308.873 14.4588 307.018 10.8734Z" fill="white"/>
<path d="M304.978 83.0769C303.124 79.6769 298.426 66.7569 296.015 58.6587C291.131 41.7824 289.895 30.346 292.367 23.7315C294.098 19.0951 298.92 14.6442 302.258 14.6442C303.742 14.6442 303.68 13.5315 302.135 12.6042C299.415 10.8733 293.542 15.5715 290.76 21.6296C289.215 25.0296 289.029 26.0806 289.029 31.6442C289.091 39.2478 291.131 48.5824 295.52 61.3787C298.178 69.3533 305.102 85.7351 305.72 85.7351C306.153 85.7351 305.906 84.8078 304.978 83.0769Z" fill="white"/>
<path d="M298.921 99.335C298.797 99.335 298.303 99.8295 297.87 100.448C297.066 101.375 297.128 101.437 298.117 100.633C299.106 99.8295 299.415 99.335 298.921 99.335Z" fill="white"/>
<path d="M294.778 104.713C294.345 105.146 294.16 105.64 294.345 105.826C294.531 106.011 294.901 105.702 295.087 105.084C295.458 104.219 295.396 104.157 294.778 104.713Z" fill="white"/>
<path d="M293.171 108.484C292.985 108.917 293.047 109.473 293.232 109.659C293.418 109.906 293.603 109.535 293.541 108.855C293.541 108.175 293.356 107.989 293.171 108.484Z" fill="white"/>
<path d="M284.083 28.8624C276.171 28.8624 248.785 21.0115 238.4 15.757C237.04 15.077 235.865 14.7061 235.742 14.8297C235.371 15.2006 244.334 19.2188 252.556 22.4333C262.756 26.3279 275.429 29.8515 283.898 31.0261C286.556 31.397 286.803 31.2733 286.803 30.1606C286.803 29.0479 286.433 28.8624 284.083 28.8624Z" fill="white"/>
<path d="M282.662 34.0552H279.448L278.768 37.0843C278.459 38.7534 277.84 40.6697 277.469 41.3497C276.542 43.0806 276.913 43.2043 280.066 42.2152C281.549 41.7206 283.528 41.1643 284.393 40.9788C285.877 40.6697 286 40.4224 285.939 37.3934V34.117L282.662 34.0552Z" fill="white"/>
<path d="M255.524 9.01871C249.837 6.79326 240.812 4.01144 236.546 3.2078C230.241 2.03326 219.608 2.03326 214.477 3.26962C209.655 4.38235 202.67 7.65871 199.579 10.2551C192.902 15.8187 190.924 24.4733 195.128 29.4805C198.033 33.0042 201.062 34.1169 207.677 34.0551C216.27 33.9933 223.688 31.706 239.142 24.3496L245.015 21.506L242.852 20.5169L240.75 19.5278L233.022 23.1751C223.626 27.626 217.321 29.7896 211.262 30.6551C201.248 32.0151 195.932 29.1714 195.932 22.4333C195.932 16.6842 200.012 11.8623 207.986 8.09144C214.539 4.93871 219.361 3.94962 227.15 4.01144C234.939 4.07326 241.121 5.18598 250.27 8.21508C253.793 9.38962 256.822 10.1933 257.008 10.0078C257.193 9.88417 256.513 9.38962 255.524 9.01871Z" fill="white"/>
<path d="M222.699 12.9132C222.514 12.4805 221.587 11.7386 220.659 11.2441C215.343 8.46227 205.328 12.6659 202.114 19.0332C200.507 22.1241 200.568 23.4841 202.299 25.4623C203.412 26.7605 204.401 27.1932 206.75 27.3786C209.779 27.5641 209.779 27.5641 207.801 26.8841C206.627 26.5132 205.267 25.5241 204.772 24.7205C201.928 20.3932 209.285 12.1095 216.888 11.1205C219.794 10.7495 222.328 12.6041 222.699 15.4477L222.947 17.4259L223.008 15.5714C223.008 14.5823 222.885 13.3459 222.699 12.9132Z" fill="white"/>
<path d="M221.523 19.2805C221.214 19.6514 220.101 20.8878 219.112 22.0623L217.258 24.2259L218.989 22.6805C219.978 21.815 221.029 20.5787 221.4 19.8987C221.771 19.2187 221.771 18.9714 221.523 19.2805Z" fill="white"/>
<path d="M214.168 0.487797C209.593 0.425979 204.277 1.53871 199.826 3.51689C195.808 5.30962 191.048 10.1933 186.968 16.8696C182.208 24.4732 178.004 28.4296 172.873 30.0369C168.422 31.3969 161.993 32.386 154.513 32.8187L149.259 33.1278L153.153 32.2623C161.128 30.4078 164.281 27.8114 169.721 18.5387C175.655 8.46234 180.415 4.44416 188.699 2.5278L192.531 1.66234L189.441 1.90962C184.681 2.34234 179.673 4.50598 176.088 7.72052C174.295 9.3278 170.771 13.7787 168.237 17.6114C163.601 24.7205 160.695 27.5642 156.801 28.8005C155.688 29.1714 151.608 29.8514 147.713 30.346C141.655 31.1496 130.219 31.2114 71.3679 30.9023C27.9097 30.7169 1.32786 30.7787 -0.0321442 31.1496C-1.63942 31.5823 2.31695 31.8296 15.1133 32.2005C24.6333 32.4478 41.0151 32.8805 51.586 33.1896C62.1569 33.5605 79.7751 34.0551 90.8406 34.426C101.906 34.7351 123.728 35.0442 139.43 35.0442C165.826 35.0442 168.237 34.9823 172.75 33.8078C180.786 31.7678 184.681 28.1205 190.615 17.1169C196.117 6.9787 202.67 2.65143 214.724 1.10598L218.495 0.611434L214.168 0.487797Z" fill="white"/>
</svg>
