<svg width="340" height="340" viewBox="0 0 340 340" fill="none" xmlns="http://www.w3.org/2000/svg">
<path d="M235.157 339.32C229.717 338.64 226.44 337.651 222.484 335.549C217.786 333.076 214.51 329.553 211.11 323.309C204.68 311.625 200.848 308.287 191.513 306.371C187.557 305.567 182.117 305.382 160.295 305.444C145.768 305.444 125.615 305.691 115.6 306C105.586 306.309 81.3532 306.989 61.8186 307.545C42.2841 308.04 24.1714 308.72 21.6368 308.967C13.5386 309.771 75.7277 310.327 104.164 309.709C143.542 308.844 159.43 308.905 167.96 310.018C171.979 310.574 176.059 311.254 177.11 311.625C180.942 312.924 183.662 315.52 188.546 322.691C191.204 326.709 194.851 331.222 196.582 332.767C200.168 335.982 204.928 338.022 209.75 338.393C211.48 338.516 212.284 338.516 211.419 338.331C201.095 336.6 196.397 332.891 189.782 321.454C184.837 312.924 180.139 309.214 172.906 308.164C167.404 307.298 170.433 307.174 178.099 307.854C195.779 309.462 200.168 311.873 207.771 324.298C214.448 335.178 222.917 340.124 234.6 339.938L238.928 339.814L235.157 339.32Z" fill="white"/>
<path d="M258.401 336.909C265.14 335.426 278.06 331.036 277.441 330.418C277.318 330.233 274.783 330.913 271.94 331.902C261.925 335.24 255.558 336.476 247.583 336.538C239.361 336.538 234.787 335.611 228.296 332.644C223.845 330.542 219.209 326.524 217.54 323.186C215.809 319.786 215.932 315.211 217.911 312.924C220.321 310.08 222.423 309.524 229.223 309.895C236.641 310.266 241.34 311.687 252.405 316.942C260.318 320.713 260.998 320.898 262.729 320.218C263.78 319.786 264.583 319.229 264.583 318.982C264.583 318.487 254.754 313.789 247.707 310.884C237.383 306.618 225.638 305.135 220.383 307.422C208.823 312.553 211.729 326.771 225.885 333.942C234.292 338.207 247.089 339.382 258.401 336.909Z" fill="white"/>
<path d="M318.364 335.487C321.826 334.683 326.4 332.334 326.4 331.283C326.4 330.418 323.557 330.603 320.157 331.716C317.684 332.52 315.52 332.705 309.524 332.396C300.375 332.025 291.597 329.862 279.728 325.102C272.866 322.382 271.444 322.011 269.651 322.443C268.539 322.753 267.549 323.247 267.488 323.494C267.302 324.174 275.648 327.76 284.117 330.727C296.913 335.116 311.131 337.156 318.364 335.487Z" fill="white"/>
<path d="M241.957 328.687C242.884 327.76 243.564 326.338 243.564 325.473C243.564 323.927 242.019 320.218 241.339 320.218C241.215 320.218 241.463 321.022 242.019 322.073C242.514 323.062 242.946 324.546 242.946 325.411C242.946 327.389 240.288 329.491 237.754 329.491C234.848 329.491 229.655 326.647 227.183 323.742C223.35 319.291 223.783 315.087 228.234 313.542C230.212 312.862 230.212 312.8 227.306 313.047C215.19 313.975 223.474 329.12 236.579 329.986C240.041 330.233 240.535 330.109 241.957 328.687Z" fill="white"/>
<path d="M329.553 327.451C336.601 323.68 337.899 311.255 333.262 292.771C331.593 286.28 326.957 273.669 324.484 268.909L323.372 266.746L322.568 268.909C321.641 271.444 321.517 270.764 324.546 278.182C330.048 291.782 332.582 302.6 332.582 312.12C332.582 318.735 331.717 321.826 329.368 324.051C327.822 325.473 326.957 325.782 324.299 325.782C322.444 325.782 320.281 325.349 318.982 324.669C316.572 323.371 313.048 318.673 312.306 315.644C311.688 313.295 309.71 312.615 309.71 314.778C309.772 318.858 314.161 325.102 318.55 327.327C322.506 329.306 325.968 329.306 329.553 327.451Z" fill="white"/>
<path d="M257.35 325.411C260.75 323.556 273.67 318.858 281.768 316.447C298.644 311.564 310.081 310.327 316.695 312.8C321.332 314.531 325.783 319.353 325.783 322.691C325.783 324.175 326.895 324.113 327.823 322.567C329.553 319.847 324.855 313.975 318.797 311.193C315.397 309.647 314.346 309.462 308.783 309.462C301.179 309.524 291.844 311.564 279.048 315.953C271.073 318.611 254.692 325.535 254.692 326.153C254.692 326.586 255.619 326.338 257.35 325.411Z" fill="white"/>
<path d="M241.092 319.353C241.092 319.229 240.597 318.734 239.979 318.302C239.052 317.498 238.99 317.56 239.794 318.549C240.597 319.538 241.092 319.847 241.092 319.353Z" fill="white"/>
<path d="M235.714 315.211C235.281 314.778 234.787 314.593 234.601 314.778C234.416 314.964 234.725 315.335 235.343 315.52C236.209 315.891 236.27 315.829 235.714 315.211Z" fill="white"/>
<path d="M231.943 313.604C231.511 313.418 230.954 313.48 230.769 313.665C230.521 313.851 230.892 314.036 231.572 313.975C232.252 313.975 232.438 313.789 231.943 313.604Z" fill="white"/>
<path d="M311.565 304.517C311.565 296.604 319.416 269.218 324.67 258.833C325.35 257.473 325.721 256.298 325.598 256.175C325.227 255.804 321.208 264.767 317.994 272.989C314.099 283.189 310.576 295.862 309.401 304.331C309.03 306.989 309.154 307.237 310.267 307.237C311.379 307.237 311.565 306.866 311.565 304.517Z" fill="white"/>
<path d="M306.371 303.094V299.88L303.342 299.2C301.673 298.891 299.757 298.273 299.077 297.902C297.346 296.974 297.222 297.345 298.211 300.498C298.706 301.982 299.262 303.96 299.447 304.825C299.757 306.309 300.004 306.433 303.033 306.371H306.309L306.371 303.094Z" fill="white"/>
<path d="M331.408 275.956C333.633 270.269 336.415 261.244 337.218 256.978C338.393 250.673 338.393 240.04 337.157 234.909C336.044 230.087 332.768 223.102 330.171 220.011C324.608 213.335 315.953 211.356 310.946 215.56C307.422 218.466 306.309 221.495 306.371 228.109C306.433 236.702 308.72 244.12 316.077 259.575L318.92 265.447L319.909 263.284L320.898 261.182L317.251 253.455C312.8 244.058 310.637 237.753 309.771 231.695C308.411 221.68 311.255 216.364 317.993 216.364C323.742 216.364 328.564 220.444 332.335 228.418C335.488 234.971 336.477 239.793 336.415 247.582C336.353 255.371 335.24 261.553 332.211 270.702C331.037 274.226 330.233 277.255 330.418 277.44C330.542 277.626 331.037 276.946 331.408 275.956Z" fill="white"/>
<path d="M327.514 243.131C327.947 242.946 328.689 242.018 329.183 241.091C331.965 235.775 327.761 225.76 321.394 222.546C318.303 220.938 316.943 221 314.965 222.731C313.667 223.844 313.234 224.833 313.049 227.182C312.863 230.211 312.863 230.211 313.543 228.233C313.914 227.058 314.903 225.698 315.707 225.204C320.034 222.36 328.318 229.716 329.307 237.32C329.678 240.226 327.823 242.76 324.98 243.131L323.001 243.378L324.856 243.44C325.845 243.44 327.081 243.316 327.514 243.131Z" fill="white"/>
<path d="M321.146 241.956C320.775 241.647 319.539 240.535 318.364 239.545L316.2 237.691L317.746 239.422C318.611 240.411 319.848 241.462 320.528 241.833C321.208 242.204 321.455 242.204 321.146 241.956Z" fill="white"/>
<path d="M339.939 234.6C340.001 230.025 338.888 224.709 336.91 220.258C335.117 216.24 330.234 211.48 323.557 207.4C315.954 202.64 311.997 198.436 310.39 193.305C309.03 188.855 308.041 182.425 307.608 174.945L307.299 169.691L308.164 173.585C310.019 181.56 312.615 184.713 321.888 190.153C331.964 196.087 335.983 200.847 337.899 209.131L338.764 212.964L338.517 209.873C338.084 205.113 335.921 200.105 332.706 196.52C331.099 194.727 326.648 191.204 322.815 188.669C315.706 184.033 312.863 181.127 311.626 177.233C311.255 176.12 310.575 172.04 310.081 168.145C309.277 162.087 309.215 150.651 309.524 91.8C309.71 48.3418 309.648 21.76 309.277 20.4C308.844 18.7927 308.597 22.7491 308.226 35.5454C307.979 45.0654 307.546 61.4473 307.237 72.0182C306.866 82.5891 306.372 100.207 306.001 111.273C305.692 122.338 305.383 144.16 305.383 159.862C305.383 186.258 305.444 188.669 306.619 193.182C308.659 201.218 312.306 205.113 323.31 211.047C333.448 216.549 337.775 223.102 339.321 235.156L339.815 238.927L339.939 234.6Z" fill="white"/>
</svg>
