<svg width="320" height="320" viewBox="0 0 320 320" fill="none" xmlns="http://www.w3.org/2000/svg">
<path d="M0.253306 214.727C0.933306 209.287 1.9224 206.01 4.02422 202.054C6.49694 197.356 10.0206 194.079 16.2642 190.679C27.9479 184.25 31.286 180.418 33.2024 171.083C34.006 167.127 34.1915 161.687 34.1297 139.865C34.1297 125.338 33.8824 105.185 33.5733 95.1703C33.2642 85.1557 32.5842 60.923 32.0279 41.3885C31.5333 21.8539 30.8533 3.74119 30.606 1.20665C29.8024 -6.89153 29.246 55.2976 29.8642 83.7339C30.7297 123.112 30.6679 138.999 29.5551 147.53C28.9988 151.548 28.3188 155.628 27.9479 156.679C26.6497 160.512 24.0533 163.232 16.8824 168.116C12.8642 170.774 8.35149 174.421 6.80603 176.152C3.59149 179.738 1.55149 184.498 1.18058 189.319C1.05694 191.05 1.05694 191.854 1.2424 190.988C2.97331 180.665 6.6824 175.967 18.1188 169.352C26.6497 164.407 30.3588 159.708 31.4097 152.476C32.2751 146.974 32.3988 150.003 31.7188 157.668C30.1115 175.348 27.7006 179.738 15.2751 187.341C4.39512 194.018 -0.550331 202.487 -0.364876 214.17L-0.24124 218.498L0.253306 214.727Z" fill="white"/>
<path d="M2.66353 237.97C4.14716 244.709 8.53625 257.629 9.15444 257.01C9.33989 256.887 8.65989 254.352 7.6708 251.509C4.33262 241.494 3.09625 235.127 3.03444 227.152C3.03444 218.93 3.96171 214.356 6.92898 207.865C9.0308 203.414 13.049 198.778 16.3872 197.109C19.7872 195.378 24.3617 195.501 26.649 197.479C29.4926 199.89 30.049 201.992 29.6781 208.792C29.3072 216.21 27.8853 220.909 22.6308 231.974C18.8599 239.887 18.6744 240.567 19.3544 242.298C19.7872 243.349 20.3435 244.152 20.5908 244.152C21.0853 244.152 25.7835 234.323 28.689 227.276C32.9544 216.952 34.4381 205.207 32.1508 199.952C27.0199 188.392 12.8017 191.298 5.6308 205.454C1.36535 213.861 0.1908 226.658 2.66353 237.97Z" fill="white"/>
<path d="M4.08515 297.934C4.88878 301.396 7.23787 305.97 8.28878 305.97C9.15424 305.97 8.96878 303.127 7.85605 299.727C7.05242 297.254 6.86696 295.09 7.17605 289.094C7.54696 279.945 9.7106 271.167 14.4706 259.297C17.1906 252.436 17.5615 251.014 17.1288 249.221C16.8197 248.108 16.3251 247.119 16.0779 247.057C15.3979 246.872 11.8124 255.217 8.84515 263.687C4.45605 276.483 2.41606 290.701 4.08515 297.934Z" fill="white"/>
<path d="M10.8853 221.527C11.8126 222.454 13.2344 223.134 14.0999 223.134C15.6453 223.134 19.3544 221.588 19.3544 220.908C19.3544 220.785 18.5508 221.032 17.4999 221.588C16.5108 222.083 15.0271 222.516 14.1617 222.516C12.1835 222.516 10.0817 219.857 10.0817 217.323C10.0817 214.417 12.9253 209.225 15.8308 206.752C20.2817 202.919 24.4853 203.352 26.0308 207.803C26.7108 209.781 26.7726 209.781 26.5253 206.876C25.598 194.759 10.4526 203.043 9.58714 216.148C9.33987 219.61 9.4635 220.105 10.8853 221.527Z" fill="white"/>
<path d="M12.1227 309.123C15.8936 316.17 28.319 317.468 46.8027 312.832C53.2936 311.163 65.9045 306.526 70.6645 304.054L72.8281 302.941L70.6645 302.137C68.1299 301.21 68.8099 301.086 61.3918 304.115C47.7918 309.617 36.9736 312.152 27.4536 312.152C20.839 312.152 17.7481 311.286 15.5227 308.937C14.1008 307.392 13.7918 306.526 13.7918 303.868C13.7918 302.014 14.2245 299.85 14.9045 298.552C16.2027 296.141 20.9008 292.617 23.9299 291.875C26.279 291.257 26.959 289.279 24.7954 289.279C20.7154 289.341 14.4718 293.73 12.2463 298.119C10.2681 302.075 10.2681 305.537 12.1227 309.123Z" fill="white"/>
<path d="M14.1622 236.919C16.0168 240.319 20.715 253.239 23.1259 261.337C28.0095 278.214 29.2459 289.65 26.7731 296.265C25.0422 300.901 20.2204 305.352 16.8822 305.352C15.3986 305.352 15.4604 306.465 17.0059 307.392C19.7259 309.123 25.5986 304.425 28.3804 298.366C29.9259 294.966 30.1113 293.916 30.1113 288.352C30.0495 280.748 28.0095 271.414 23.6204 258.617C20.9622 250.643 14.0386 234.261 13.4204 234.261C12.9877 234.261 13.235 235.188 14.1622 236.919Z" fill="white"/>
<path d="M20.2197 220.661C20.3433 220.661 20.8379 220.167 21.2706 219.548C22.0742 218.621 22.0124 218.559 21.0233 219.363C20.0342 220.167 19.7251 220.661 20.2197 220.661Z" fill="white"/>
<path d="M24.3629 215.283C24.7956 214.85 24.981 214.356 24.7956 214.17C24.6101 213.985 24.2392 214.294 24.0538 214.912C23.6829 215.777 23.7447 215.839 24.3629 215.283Z" fill="white"/>
<path d="M25.9701 211.512C26.1555 211.079 26.0937 210.523 25.9082 210.338C25.7228 210.09 25.5373 210.461 25.5991 211.141C25.5991 211.821 25.7846 212.007 25.9701 211.512Z" fill="white"/>
<path d="M35.0572 291.134C42.9699 291.134 70.3554 298.985 80.7408 304.239C82.1008 304.919 83.2754 305.29 83.399 305.166C83.7699 304.795 74.8063 300.777 66.5845 297.563C56.3845 293.668 43.7118 290.145 35.2427 288.97C32.5845 288.599 32.3372 288.723 32.3372 289.835C32.3372 290.948 32.7081 291.134 35.0572 291.134Z" fill="white"/>
<path d="M36.4784 285.941H39.693L40.373 282.912C40.6821 281.243 41.3003 279.326 41.6712 278.646C42.5984 276.915 42.2275 276.792 39.0748 277.781C37.5912 278.275 35.613 278.832 34.7475 279.017C33.2639 279.326 33.1403 279.574 33.2021 282.603V285.879L36.4784 285.941Z" fill="white"/>
<path d="M63.6163 310.977C69.3036 313.203 78.3291 315.985 82.5945 316.788C88.9 317.963 99.5327 317.963 104.664 316.726C109.485 315.614 116.471 312.337 119.562 309.741C126.238 304.177 128.216 295.523 124.013 290.516C121.107 286.992 118.078 285.879 111.464 285.941C102.871 286.003 95.4527 288.29 79.9981 295.646L74.1254 298.49L76.2891 299.479L78.3909 300.468L86.1181 296.821C95.5145 292.37 101.82 290.206 107.878 289.341C117.893 287.981 123.209 290.825 123.209 297.563C123.209 303.312 119.129 308.134 111.155 311.905C104.602 315.057 99.78 316.046 91.9909 315.985C84.2018 315.923 78.02 314.81 68.8709 311.781C65.3472 310.606 62.3181 309.803 62.1327 309.988C61.9472 310.112 62.6272 310.606 63.6163 310.977Z" fill="white"/>
<path d="M96.4412 307.083C96.6267 307.516 97.554 308.257 98.4812 308.752C103.798 311.534 113.812 307.33 117.027 300.963C118.634 297.872 118.572 296.512 116.841 294.534C115.729 293.236 114.739 292.803 112.39 292.617C109.361 292.432 109.361 292.432 111.339 293.112C112.514 293.483 113.874 294.472 114.369 295.276C117.212 299.603 109.856 307.887 102.252 308.876C99.3467 309.247 96.8121 307.392 96.4412 304.548L96.194 302.57L96.1321 304.425C96.1321 305.414 96.2558 306.65 96.4412 307.083Z" fill="white"/>
<path d="M97.6174 300.716C97.9264 300.345 99.0392 299.108 100.028 297.934L101.883 295.77L100.152 297.316C99.1628 298.181 98.1119 299.417 97.741 300.097C97.3701 300.777 97.3701 301.025 97.6174 300.716Z" fill="white"/>
<path d="M104.973 319.508C109.547 319.57 114.864 318.457 119.315 316.479C123.333 314.686 128.093 309.803 132.173 303.126C136.933 295.523 141.136 291.566 146.267 289.959C150.718 288.599 157.147 287.61 164.627 287.177L169.882 286.868L165.987 287.734C158.013 289.588 154.86 292.185 149.42 301.457C143.486 311.534 138.726 315.552 130.442 317.468L126.609 318.334L129.7 318.086C134.46 317.654 139.467 315.49 143.053 312.276C144.846 310.668 148.369 306.217 150.904 302.385C155.54 295.276 158.446 292.432 162.34 291.196C163.453 290.825 167.533 290.145 171.427 289.65C177.486 288.846 188.922 288.785 247.773 289.094C291.231 289.279 317.813 289.217 319.173 288.846C320.78 288.414 316.824 288.166 304.027 287.796C294.507 287.548 278.125 287.116 267.555 286.806C256.984 286.436 239.365 285.941 228.3 285.57C217.235 285.261 195.413 284.952 179.711 284.952C153.315 284.952 150.904 285.014 146.391 286.188C138.355 288.228 134.46 291.876 128.526 302.879C123.024 313.017 116.471 317.345 104.416 318.89L100.646 319.385L104.973 319.508Z" fill="white"/>
</svg>
