<svg width="340" height="340" viewBox="0 0 340 340" fill="none" xmlns="http://www.w3.org/2000/svg">
<path d="M104.843 0.680063C110.283 1.36006 113.56 2.34915 117.516 4.45097C122.214 6.9237 125.49 10.4473 128.89 16.691C135.32 28.3746 139.152 31.7128 148.487 33.6292C152.443 34.4328 157.883 34.6182 179.705 34.5564C194.232 34.5564 214.385 34.3092 224.4 34.0001C234.414 33.691 258.647 33.011 278.181 32.4546C297.716 31.9601 315.829 31.2801 318.363 31.0328C326.461 30.2292 264.272 29.6728 235.836 30.291C196.458 31.1564 180.57 31.0946 172.04 29.9819C168.021 29.4255 163.941 28.7455 162.89 28.3746C159.058 27.0764 156.338 24.4801 151.454 17.3092C148.796 13.291 145.149 8.77825 143.418 7.23279C139.832 4.01825 135.072 1.97825 130.25 1.60734C128.52 1.4837 127.716 1.4837 128.581 1.66915C138.905 3.40006 143.603 7.10916 150.218 18.5455C155.163 27.0764 159.861 30.7855 167.094 31.8364C172.596 32.7019 169.567 32.8255 161.901 32.1455C144.221 30.5382 139.832 28.1273 132.229 15.7019C125.552 4.82188 117.083 -0.123571 105.4 0.0618803L101.072 0.185518L104.843 0.680063Z" fill="white"/>
<path d="M81.5985 3.09077C74.8603 4.57441 61.9403 8.9635 62.5585 9.58168C62.6822 9.76714 65.2167 9.08714 68.0603 8.09805C78.0749 4.75986 84.4422 3.5235 92.4167 3.46168C100.639 3.46168 105.213 4.38896 111.704 7.35623C116.155 9.45805 120.791 13.4762 122.46 16.8144C124.191 20.2144 124.068 24.789 122.089 27.0762C119.679 29.9199 117.577 30.4762 110.777 30.1053C103.359 29.7344 98.6603 28.3126 87.5949 23.058C79.6822 19.2871 79.0022 19.1017 77.2712 19.7817C76.2203 20.2144 75.4167 20.7708 75.4167 21.018C75.4167 21.5126 85.2458 26.2108 92.2931 29.1162C102.617 33.3817 114.362 34.8653 119.617 32.578C131.177 27.4471 128.271 13.229 114.115 6.05805C105.708 1.79259 92.9112 0.618048 81.5985 3.09077Z" fill="white"/>
<path d="M21.636 4.51288C18.1742 5.31652 13.5996 7.66561 13.5996 8.71652C13.5996 9.58197 16.4432 9.39652 19.8432 8.28379C22.316 7.48015 24.4796 7.2947 30.476 7.60379C39.6251 7.9747 48.4032 10.1383 60.2723 14.8983C67.1342 17.6183 68.556 17.9892 70.3487 17.5565C71.4614 17.2474 72.4505 16.7529 72.5123 16.5056C72.6978 15.8256 64.3523 12.2402 55.8832 9.27288C43.0869 4.88379 28.8687 2.84379 21.636 4.51288Z" fill="white"/>
<path d="M98.0428 11.3126C97.1155 12.2398 96.4355 13.6617 96.4355 14.5271C96.4355 16.0726 97.981 19.7817 98.661 19.7817C98.7846 19.7817 98.5374 18.978 97.981 17.9271C97.4865 16.938 97.0537 15.4544 97.0537 14.5889C97.0537 12.6107 99.7119 10.5089 102.246 10.5089C105.152 10.5089 110.345 13.3526 112.817 16.258C116.65 20.7089 116.217 24.9126 111.766 26.458C109.788 27.138 109.788 27.1998 112.694 26.9526C124.81 26.0253 116.526 10.8798 103.421 10.0144C99.9592 9.76711 99.4646 9.89075 98.0428 11.3126Z" fill="white"/>
<path d="M10.4466 12.5489C3.39936 16.3198 2.10118 28.7453 6.73754 47.2289C8.40663 53.7198 13.043 66.3308 15.5157 71.0908L16.6285 73.2544L17.4321 71.0908C18.3594 68.5562 18.483 69.2362 15.4539 61.818C9.95209 48.218 7.41754 37.3998 7.41754 27.8798C7.41754 21.2653 8.283 18.1744 10.6321 15.9489C12.1775 14.5271 13.043 14.218 15.7012 14.218C17.5557 14.218 19.7194 14.6508 21.0175 15.3308C23.4285 16.6289 26.9521 21.3271 27.6939 24.3562C28.3121 26.7053 30.2903 27.3853 30.2903 25.2217C30.2285 21.1417 25.8394 14.898 21.4503 12.6726C17.4939 10.6944 14.0321 10.6944 10.4466 12.5489Z" fill="white"/>
<path d="M82.6502 14.589C79.2502 16.4435 66.3302 21.1417 58.232 23.5526C41.3556 28.4363 29.9193 29.6726 23.3047 27.1999C18.6683 25.469 14.2174 20.6472 14.2174 17.309C14.2174 15.8254 13.1047 15.8872 12.1774 17.4326C10.4465 20.1526 15.1447 26.0254 21.2029 28.8072C24.6029 30.3526 25.6538 30.5381 31.2174 30.5381C38.8211 30.4763 48.1556 28.4363 60.952 24.0472C68.9265 21.389 85.3083 14.4654 85.3083 13.8472C85.3083 13.4144 84.3811 13.6617 82.6502 14.589Z" fill="white"/>
<path d="M98.9082 20.6474C98.9082 20.771 99.4027 21.2656 100.021 21.6983C100.948 22.502 101.01 22.4401 100.206 21.451C99.4027 20.462 98.9082 20.1529 98.9082 20.6474Z" fill="white"/>
<path d="M104.286 24.7891C104.719 25.2218 105.213 25.4073 105.399 25.2218C105.584 25.0364 105.275 24.6655 104.657 24.48C103.791 24.1091 103.73 24.1709 104.286 24.7891Z" fill="white"/>
<path d="M108.057 26.3963C108.489 26.5818 109.046 26.52 109.231 26.3345C109.479 26.1491 109.108 25.9636 108.428 26.0254C107.748 26.0254 107.562 26.2109 108.057 26.3963Z" fill="white"/>
<path d="M28.4352 35.4835C28.4352 43.3962 20.5843 70.7817 15.3297 81.1671C14.6497 82.5271 14.2788 83.7017 14.4025 83.8253C14.7734 84.1962 18.7916 75.2326 22.0061 67.0107C25.9006 56.8107 29.4243 44.138 30.5988 35.6689C30.9697 33.0107 30.8461 32.7635 29.7334 32.7635C28.6206 32.7635 28.4352 33.1344 28.4352 35.4835Z" fill="white"/>
<path d="M33.6289 36.9057V40.1202L36.658 40.8002C38.3271 41.1093 40.2435 41.7275 40.9235 42.0984C42.6544 43.0257 42.778 42.6548 41.7889 39.502C41.2944 38.0184 40.738 36.0402 40.5525 35.1748C40.2435 33.6911 39.9962 33.5675 36.9671 33.6293H33.6907L33.6289 36.9057Z" fill="white"/>
<path d="M8.59244 64.0436C6.36699 69.7308 3.58517 78.7563 2.78153 83.0218C1.60699 89.3272 1.60699 99.9599 2.84335 105.091C3.95608 109.913 7.23244 116.898 9.82881 119.989C15.3924 126.665 24.047 128.644 29.0543 124.44C32.5779 121.534 33.6906 118.505 33.6288 111.891C33.567 103.298 31.2797 95.8799 23.9234 80.4254L21.0797 74.5527L20.0906 76.7163L19.1015 78.8181L22.7488 86.5454C27.1997 95.9418 29.3634 102.247 30.2288 108.305C31.5888 118.32 28.7452 123.636 22.007 123.636C16.2579 123.636 11.4361 119.556 7.66517 111.582C4.51244 105.029 3.52335 100.207 3.58517 92.4181C3.64699 84.629 4.75972 78.4472 7.78881 69.2981C8.96335 65.7745 9.76699 62.7454 9.58153 62.5599C9.4579 62.3745 8.96335 63.0545 8.59244 64.0436Z" fill="white"/>
<path d="M12.4859 96.869C12.0532 97.0544 11.3114 97.9817 10.8168 98.909C8.03503 104.225 12.2387 114.24 18.6059 117.454C21.6968 119.062 23.0568 119 25.035 117.269C26.3332 116.156 26.7659 115.167 26.9514 112.818C27.1368 109.789 27.1368 109.789 26.4568 111.767C26.0859 112.942 25.0968 114.302 24.2932 114.796C19.9659 117.64 11.6823 110.284 10.6932 102.68C10.3223 99.7744 12.1768 97.2399 15.0205 96.869L16.9987 96.6217L15.1441 96.5599C14.155 96.5599 12.9187 96.6835 12.4859 96.869Z" fill="white"/>
<path d="M18.8542 98.0436C19.2251 98.3527 20.4615 99.4654 21.636 100.455L23.7997 102.309L22.2542 100.578C21.3888 99.5891 20.1524 98.5382 19.4724 98.1673C18.7924 97.7964 18.5451 97.7964 18.8542 98.0436Z" fill="white"/>
<path d="M0.0610396 105.4C-0.000778571 109.975 1.11195 115.291 3.09013 119.742C4.88286 123.76 9.76649 128.52 16.4429 132.6C24.0465 137.36 28.0029 141.564 29.6101 146.695C30.9701 151.145 31.9592 157.575 32.3919 165.055L32.701 170.309L31.8356 166.415C29.981 158.44 27.3847 155.287 18.1119 149.847C8.03558 143.913 4.0174 139.153 2.10104 130.869L1.23559 127.036L1.48286 130.127C1.91558 134.887 4.07922 139.895 7.29377 143.48C8.90104 145.273 13.3519 148.796 17.1847 151.331C24.2938 155.967 27.1374 158.873 28.3738 162.767C28.7447 163.88 29.4247 167.96 29.9192 171.855C30.7229 177.913 30.7847 189.349 30.4756 248.2C30.2901 291.658 30.3519 318.24 30.7229 319.6C31.1556 321.207 31.4029 317.251 31.7738 304.455C32.021 294.935 32.4538 278.553 32.7629 267.982C33.1338 257.411 33.6283 239.793 33.9992 228.727C34.3083 217.662 34.6174 195.84 34.6174 180.138C34.6174 153.742 34.5556 151.331 33.381 146.818C31.341 138.782 27.6938 134.887 16.6901 128.953C6.55195 123.451 2.22468 116.898 0.679221 104.844L0.184676 101.073L0.0610396 105.4Z" fill="white"/>
</svg>
